<svg width="15" height="9" viewBox="0 0 15 9" fill="none" xmlns="http://www.w3.org/2000/svg">
<path d="M8 8.99994C7.8684 9.0007 7.73794 8.97548 7.6161 8.92571C7.49426 8.87595 7.38344 8.80262 7.29 8.70994L1.29 2.70994C1.1017 2.52164 0.995911 2.26624 0.995911 1.99994C0.995911 1.73364 1.1017 1.47825 1.29 1.28994C1.47831 1.10164 1.7337 0.99585 2 0.99585C2.2663 0.99585 2.5217 1.10164 2.71 1.28994L8 6.58994L13.29 1.29994C13.4813 1.13612 13.7274 1.05051 13.9791 1.06023C14.2307 1.06995 14.4695 1.17428 14.6476 1.35238C14.8257 1.53047 14.93 1.76921 14.9397 2.02089C14.9494 2.27256 14.8638 2.51864 14.7 2.70994L8.7 8.70994C8.51374 8.89469 8.26234 8.99884 8 8.99994Z" fill="#777E91"/>
</svg>
