<svg width="18" height="18" viewBox="0 0 18 18" fill="none" xmlns="http://www.w3.org/2000/svg">
<path d="M15.07 5.50995L6.50999 1.22995C0.759989 -1.65005 -1.60001 0.709951 1.27999 6.45995L2.14999 8.19995C2.39999 8.70995 2.39999 9.29995 2.14999 9.80995L1.27999 11.54C-1.60001 17.2899 0.749989 19.65 6.50999 16.77L15.07 12.4899C18.91 10.57 18.91 7.42995 15.07 5.50995ZM11.84 9.74995H6.43999C6.02999 9.74995 5.68999 9.40995 5.68999 8.99995C5.68999 8.58995 6.02999 8.24995 6.43999 8.24995H11.84C12.25 8.24995 12.59 8.58995 12.59 8.99995C12.59 9.40995 12.25 9.74995 11.84 9.74995Z" fill="#F4F5F6"/>
</svg>
