<svg width="17" height="15" viewBox="0 0 17 15" fill="none" xmlns="http://www.w3.org/2000/svg">
<path fillRule="evenodd" clipRule="evenodd" d="M8.34615 9.86272C7.07386 9.86272 6.04186 8.78577 6.04186 7.45669C6.04186 6.78329 6.30588 6.17623 6.73283 5.73889C6.89135 5.57651 6.89379 5.3107 6.73828 5.14518C6.58277 4.97966 6.3282 4.97712 6.16968 5.13949C5.59508 5.72807 5.2377 6.54845 5.2377 7.45669C5.2377 9.24965 6.62988 10.7024 8.34615 10.7024C9.21519 10.7024 10.0016 10.3293 10.5654 9.72927C10.7209 9.56375 10.7184 9.29793 10.5599 9.13556C10.4014 8.97318 10.1468 8.97573 9.99131 9.14124C9.5725 9.587 8.9904 9.86272 8.34615 9.86272Z" fill="#677185"/>
<path fillRule="evenodd" clipRule="evenodd" d="M1.97094 10.9327C3.26322 12.5897 5.31505 14.2917 8.27651 14.2917C10.285 14.2917 11.8837 13.5067 13.1099 12.4824C13.2815 12.3391 13.3085 12.0788 13.1702 11.901C13.032 11.7233 12.7808 11.6953 12.6093 11.8386C11.4957 12.7688 10.0685 13.4648 8.27651 13.4648C5.64525 13.4648 3.79901 11.9613 2.5914 10.4128C1.98847 9.63974 1.55276 8.86459 1.26784 8.28203C1.12562 7.99125 1.02162 7.74979 0.953642 7.58236C0.936728 7.5407 0.922056 7.50365 0.90959 7.4716C0.940026 7.39735 0.982843 7.29622 1.03828 7.17295C1.16559 6.8899 1.35897 6.49125 1.62125 6.03399C2.14753 5.11646 2.94249 3.97826 4.02493 3.06106C4.1955 2.91653 4.22074 2.65604 4.08129 2.47925C3.94185 2.30246 3.69054 2.2763 3.51997 2.42083C2.34096 3.41986 1.48988 4.64483 0.935473 5.6114C0.657409 6.09619 0.45179 6.51982 0.315182 6.82354C0.246836 6.9755 0.195641 7.09772 0.161185 7.18289C0.143953 7.22549 0.130898 7.25884 0.121967 7.28205C0.117502 7.29365 0.114067 7.30272 0.111655 7.30914L0.108805 7.31677L0.107954 7.31907L0.107672 7.31983L0.107567 7.32012C0.107524 7.32024 0.107485 7.32034 0.480361 7.46726C0.104584 7.60602 0.104645 7.60619 0.104714 7.6064L0.104896 7.60692L0.105412 7.60841L0.10706 7.61313C0.108433 7.61705 0.110355 7.62249 0.112831 7.62941C0.117782 7.64325 0.12495 7.66301 0.134372 7.68828C0.153213 7.73882 0.181084 7.81149 0.218284 7.90311C0.292655 8.08629 0.40449 8.34569 0.556231 8.65594C0.859227 9.27545 1.32392 10.103 1.97094 10.9327ZM0.480361 7.46726L0.104584 7.60602C0.0727721 7.51346 0.0738009 7.41218 0.107485 7.32034L0.480361 7.46726Z" fill="#677185"/>
<path fillRule="evenodd" clipRule="evenodd" d="M13.6231 11.1963C13.7859 11.3469 14.036 11.3326 14.1818 11.1645C14.947 10.2816 15.496 9.36234 15.8535 8.66565C16.0326 8.31665 16.1646 8.02174 16.2522 7.81271C16.2961 7.70816 16.3289 7.62495 16.351 7.56706C16.3621 7.5381 16.3705 7.51547 16.3763 7.49964C16.3792 7.49173 16.3815 7.48551 16.3831 7.48106L16.385 7.47572L16.3856 7.47405L16.3858 7.47347L16.3858 7.47324C16.3859 7.47315 16.3859 7.47306 16.014 7.33382C16.3838 7.18872 16.3837 7.18856 16.3837 7.18837L16.383 7.18642L16.3812 7.18179C16.3798 7.17794 16.3778 7.17257 16.3752 7.16572C16.3699 7.15203 16.3624 7.13245 16.3524 7.10737C16.3326 7.0572 16.3032 6.985 16.2642 6.8939C16.1863 6.71177 16.0695 6.45371 15.9126 6.14498C15.5991 5.5285 15.1226 4.70488 14.4703 3.87921C13.1696 2.23282 11.1308 0.532681 8.26424 0.532681C6.97137 0.532681 5.84255 0.880196 4.8741 1.41448C4.68138 1.52081 4.60859 1.76838 4.71153 1.96744C4.81447 2.16651 5.05415 2.24169 5.24687 2.13537C6.11263 1.65773 7.11438 1.34995 8.26424 1.34995C10.7967 1.34995 12.6328 2.84606 13.8572 4.39592C14.4675 5.16838 14.9161 5.94289 15.2121 6.525C15.3598 6.81557 15.4689 7.05692 15.5406 7.22438C15.5587 7.26678 15.5745 7.30441 15.5878 7.33687C15.5712 7.37888 15.5507 7.42951 15.5262 7.48789C15.4456 7.67993 15.3226 7.95525 15.1544 8.2829C14.8175 8.93953 14.303 9.79929 13.5923 10.6193C13.4465 10.7875 13.4603 11.0458 13.6231 11.1963ZM16.014 7.33382L16.3838 7.18872C16.4174 7.28019 16.4182 7.38108 16.3859 7.47306L16.014 7.33382Z" fill="#677185"/>
<path fillRule="evenodd" clipRule="evenodd" d="M10.7766 8.30361C10.9822 8.34254 11.1771 8.1866 11.2117 7.95531C11.2382 7.77796 11.2533 7.59449 11.2533 7.4053C11.2533 5.59253 9.94645 4.12207 8.33353 4.12207C8.16528 4.12207 8.00212 4.13903 7.84441 4.16889C7.63872 4.20782 7.50003 4.42688 7.53466 4.65817C7.56928 4.88947 7.76409 5.04541 7.96978 5.00648C8.08949 4.98383 8.21062 4.97145 8.33353 4.97145C9.52915 4.97145 10.498 6.06148 10.498 7.4053C10.498 7.54351 10.487 7.67972 10.4668 7.81432C10.4322 8.04562 10.5709 8.26468 10.7766 8.30361Z" fill="#677185"/>
<path fillRule="evenodd" clipRule="evenodd" d="M5.2377 7.45669C5.2377 9.24958 6.62908 10.7024 8.34615 10.7024C9.21598 10.7024 10.0017 10.3292 10.5654 9.72927C10.7209 9.56375 10.7184 9.29793 10.5599 9.13556C10.4014 8.97318 10.1468 8.97573 9.99131 9.14124C9.57246 9.58705 8.99107 9.86272 8.34615 9.86272C7.0732 9.86272 6.04186 8.78584 6.04186 7.45669C6.04186 6.78399 6.30592 6.17619 6.73283 5.73889C6.89135 5.57651 6.89379 5.3107 6.73828 5.14518C6.58277 4.97966 6.3282 4.97712 6.16968 5.13949C5.59504 5.72812 5.2377 6.54928 5.2377 7.45669Z" fill="#677185"/>
<path fillRule="evenodd" clipRule="evenodd" d="M15.149 14.4711C15.302 14.3114 15.302 14.0525 15.149 13.8928L2.18219 0.353433C2.02927 0.193761 1.78134 0.193761 1.62842 0.353433C1.4755 0.513104 1.4755 0.771984 1.62842 0.931656L14.5953 14.4711C14.7482 14.6307 14.9961 14.6307 15.149 14.4711Z" fill="#677185"/>
</svg>
