<svg width="32" height="32" viewBox="0 0 32 32" fill="none" xmlns="http://www.w3.org/2000/svg">
<g id="more 1">
<g id="Group 237491">
<g id="_x33_">
<path id="Vector" d="M22.75 6.08333C25.0479 6.08333 26.9167 7.95208 26.9167 10.25V22.75C26.9167 25.0479 25.0479 26.9167 22.75 26.9167H10.25C7.95208 26.9167 6.08333 25.0479 6.08333 22.75V10.25C6.08333 7.95208 7.95208 6.08333 10.25 6.08333H22.75ZM22.75 4H10.25C6.79792 4 4 6.79792 4 10.25V22.75C4 26.2021 6.79792 29 10.25 29H22.75C26.2021 29 29 26.2021 29 22.75V10.25C29 6.79792 26.2021 4 22.75 4Z" fill="#40425E"/>
</g>
<g id="_x32_">
<path id="Vector_2" d="M16.4997 22.75C15.9247 22.75 15.458 22.2844 15.458 21.7083V11.2917C15.458 10.7167 15.9247 10.25 16.4997 10.25C17.0747 10.25 17.5413 10.7167 17.5413 11.2917V21.7083C17.5413 22.2844 17.0747 22.75 16.4997 22.75Z" fill="#40425E"/>
</g>
<g id="_x31_">
<path id="Vector_3" d="M10.25 16.5C10.25 15.925 10.7156 15.4584 11.2917 15.4584H21.7083C22.2833 15.4584 22.75 15.925 22.75 16.5C22.75 17.075 22.2833 17.5417 21.7083 17.5417H11.2917C10.7156 17.5417 10.25 17.075 10.25 16.5Z" fill="#40425E"/>
</g>
</g>
</g>
</svg>
