<svg width="24" height="24" viewBox="0 0 24 24" fill="none" xmlns="http://www.w3.org/2000/svg">
<path d="M10.8273 13.6977V15.6512C7.58511 15.6512 4.95682 18.275 4.95682 21.5116H3C3 17.1961 6.50439 13.6977 10.8273 13.6977ZM10.8273 12.7209C7.58385 12.7209 4.95682 10.0984 4.95682 6.86047C4.95682 3.62256 7.58385 1 10.8273 1C14.0707 1 16.6977 3.62256 16.6977 6.86047C16.6977 10.0984 14.0707 12.7209 10.8273 12.7209ZM10.8273 10.7674C12.9896 10.7674 14.7409 9.01907 14.7409 6.86047C14.7409 4.70186 12.9896 2.95349 10.8273 2.95349C8.66499 2.95349 6.91364 4.70186 6.91364 6.86047C6.91364 9.01907 8.66499 10.7674 10.8273 10.7674ZM13.3659 18.3973C13.3053 18.1429 13.2733 17.8776 13.2733 17.6047C13.2733 17.3318 13.3053 17.0665 13.3658 16.8121L12.3956 16.2529L13.374 14.5611L14.3449 15.1207C14.7295 14.7575 15.1984 14.4824 15.7193 14.3276V13.2093H17.6761V14.3276C18.1971 14.4824 18.6659 14.7575 19.0505 15.1207L20.0215 14.561L21 16.2528L20.0297 16.812C20.0902 17.0665 20.1222 17.3318 20.1222 17.6047C20.1222 17.8775 20.0902 18.1428 20.0297 18.3972L21 18.9564L20.0216 20.6482L19.0506 20.0885C18.666 20.4518 18.1971 20.7269 17.6762 20.8816V22H15.7194V20.8817C15.1985 20.727 14.7296 20.4519 14.345 20.0886L13.3741 20.6483L12.3956 18.9565L13.3659 18.3973ZM16.6977 19.0698C17.5083 19.0698 18.1654 18.4138 18.1654 17.6047C18.1654 16.7955 17.5083 16.1395 16.6977 16.1395C15.8872 16.1395 15.2301 16.7955 15.2301 17.6047C15.2301 18.4138 15.8872 19.0698 16.6977 19.0698Z" fill="#9CA3AF"/>
</svg>
