<svg width="13" height="19" viewBox="0 0 13 19" fill="none" xmlns="http://www.w3.org/2000/svg">
<path d="M7.8763 12.5738C7.45467 12.8666 7.0665 13.2051 6.71179 13.5758C6.34169 13.9627 5.70925 13.5553 5.89608 13.0535C5.90762 13.0224 5.92154 12.9934 5.93398 12.9629C4.15095 12.7334 2.77859 11.1917 2.78125 9.37578C2.78244 8.55296 3.05543 7.77633 3.57003 7.13086L4.72743 8.05376C4.42335 8.43512 4.26228 8.89316 4.26139 9.37786C4.25991 10.3194 4.88435 11.136 5.74863 11.4131C5.58311 10.9598 6.12229 10.5332 6.51904 10.8565C6.93001 11.1914 7.36674 11.4913 7.83396 11.7317C8.16321 11.9014 8.18008 12.3627 7.8763 12.5738Z" fill="#9CA3AF"/>
<path d="M10.0248 9.38694C10.0236 10.2101 9.75061 10.9864 9.23542 11.6319L8.07861 10.7087C8.38239 10.3276 8.54376 9.86986 8.54435 9.38487C8.54583 8.37699 7.83079 7.51213 6.87117 7.29924C6.87236 7.3019 6.87413 7.30457 6.87532 7.30723C7.09945 7.79489 6.50195 8.25234 6.10283 7.89319C5.70874 7.53877 5.28711 7.21782 4.83203 6.95489C4.51166 6.76954 4.51729 6.30824 4.83114 6.11223C5.26668 5.84042 5.67084 5.52124 6.04302 5.16831C6.43148 4.79998 7.04349 5.23759 6.83238 5.72969C6.82321 5.75071 6.81255 5.77025 6.80307 5.79127C8.61985 5.98847 10.0274 7.54736 10.0248 9.38694Z" fill="#9CA3AF"/>
<path d="M12.785 1.62551C12.785 0.728371 12.0566 0 11.1595 0H1.63735C0.740215 0 0.0118434 0.728371 0.0118434 1.62551C0.0118434 4.18665 0 6.77148 0 9.33855V16.1041C0 17.2292 0.698763 18.1886 1.68473 18.5764C1.98674 18.6949 2.31243 18.76 2.65589 18.76H10.1409C10.4844 18.76 10.8101 18.6949 11.1121 18.5764C12.0981 18.1886 12.7968 17.2292 12.7968 16.1041L12.785 1.62551ZM7.85516 1.00077H7.90845C8.17493 1.00077 8.39404 1.21691 8.39404 1.48635C8.39404 1.60182 8.35258 1.70842 8.28152 1.79132C8.19566 1.90087 8.05946 1.97193 7.90845 1.97193H7.85516C7.70415 1.97193 7.56796 1.90087 7.48209 1.79132C7.41103 1.70842 7.36958 1.60182 7.36958 1.48635C7.36958 1.21691 7.58868 1.00077 7.85516 1.00077ZM4.88838 1.00077H6.13786C6.40434 1.00077 6.62344 1.21691 6.62344 1.48635C6.62344 1.60182 6.58199 1.70842 6.51093 1.79132C6.42506 1.90087 6.28886 1.97193 6.13786 1.97193H4.88838C4.73737 1.97193 4.60117 1.90087 4.51531 1.79132C4.44425 1.70842 4.4028 1.60182 4.4028 1.48635C4.4028 1.21691 4.6219 1.00077 4.88838 1.00077ZM7.02316 17.9162H5.77367C5.5072 17.9162 5.28809 17.7 5.28809 17.4306C5.28809 17.1967 5.45686 17.0042 5.67597 16.9568C5.70854 16.9509 5.74111 16.948 5.77367 16.948H7.02316C7.05573 16.948 7.0883 16.9509 7.12087 16.9568C7.33997 17.0042 7.50874 17.1967 7.50874 17.4306C7.50874 17.7 7.28964 17.9162 7.02316 17.9162ZM11.1684 16.1041H1.62847V1.96305H3.49381L3.82839 2.6855C3.98828 3.03488 4.33766 3.25694 4.71961 3.25694H8.0713C8.45621 3.25694 8.80263 3.03488 8.96548 2.68846L9.30302 1.96305H11.1654L11.1684 16.1041Z" fill="#9CA3AF"/>
</svg>
