<svg width="16" height="15" viewBox="0 0 16 15" fill="none" xmlns="http://www.w3.org/2000/svg">
<path fillRule="evenodd" clipRule="evenodd" d="M3.404 11.8089C2.79131 11.245 2.30387 10.5729 1.96983 9.83132C1.63579 9.08978 1.46178 8.29354 1.45783 7.4886C1.45389 6.68365 1.62009 5.88595 1.94685 5.14156C2.2736 4.39717 2.75443 3.72085 3.36157 3.15166C3.9687 2.58247 4.69011 2.1317 5.48412 1.82536C6.27814 1.51903 7.12902 1.36321 7.98763 1.36691C8.84624 1.37061 9.69556 1.53375 10.4865 1.84691C11.2775 2.16007 11.9945 2.61705 12.596 3.19144C13.7965 4.33777 14.4656 5.88215 14.4577 7.4886C14.4498 9.09504 13.7656 10.6336 12.554 11.7695C11.3423 12.9055 9.70117 13.5469 7.98763 13.5543C6.27409 13.5617 4.62675 12.9344 3.404 11.8089ZM2.344 2.19676C1.59369 2.89162 0.997349 3.7187 0.589273 4.63044C0.181196 5.54217 -0.0305581 6.52055 -0.0338061 7.50929C-0.037054 8.49803 0.168268 9.47762 0.570347 10.3917C0.972426 11.3058 1.56333 12.1363 2.30905 12.8355C3.05478 13.5346 3.94061 14.0887 4.91558 14.4657C5.89056 14.8427 6.93543 15.0353 7.99009 15.0324C9.04474 15.0294 10.0884 14.831 11.0609 14.4485C12.0335 14.066 12.9157 13.507 13.657 12.8036C15.1573 11.3971 16.0002 9.48937 16.0002 7.50019C16.0002 5.51102 15.1573 3.60331 13.657 2.19676C12.1567 0.790197 10.1218 1.48205e-08 8 0C5.87821 -1.48205e-08 3.84333 0.790197 2.343 2.19676H2.344ZM6.03 4.65957C5.88783 4.53537 5.69978 4.46775 5.50548 4.47097C5.31118 4.47418 5.12579 4.54797 4.98838 4.6768C4.85096 4.80562 4.77225 4.97942 4.76882 5.16158C4.7654 5.34374 4.83752 5.52003 4.97 5.65332L6.94 7.50019L4.97 9.34707C4.89631 9.41144 4.83721 9.48906 4.79622 9.57531C4.75523 9.66156 4.73318 9.75467 4.73141 9.84908C4.72963 9.94349 4.74816 10.0373 4.78588 10.1248C4.8236 10.2124 4.87974 10.2919 4.95096 10.3587C5.02218 10.4254 5.10701 10.4781 5.2004 10.5134C5.29379 10.5488 5.39382 10.5662 5.49452 10.5645C5.59522 10.5628 5.69454 10.5422 5.78654 10.5037C5.87854 10.4653 5.96134 10.4099 6.03 10.3408L8 8.49394L9.97 10.3408C10.0387 10.4099 10.1215 10.4653 10.2135 10.5037C10.3055 10.5422 10.4048 10.5628 10.5055 10.5645C10.6062 10.5662 10.7062 10.5488 10.7996 10.5134C10.893 10.4781 10.9778 10.4254 11.049 10.3587C11.1203 10.2919 11.1764 10.2124 11.2141 10.1248C11.2518 10.0373 11.2704 9.94349 11.2686 9.84908C11.2668 9.75467 11.2448 9.66156 11.2038 9.57531C11.1628 9.48906 11.1037 9.41144 11.03 9.34707L9.06 7.50019L11.03 5.65332C11.1037 5.58895 11.1628 5.51132 11.2038 5.42507C11.2448 5.33882 11.2668 5.24572 11.2686 5.15131C11.2704 5.0569 11.2518 4.96312 11.2141 4.87557C11.1764 4.78802 11.1203 4.70849 11.049 4.64172C10.9778 4.57495 10.893 4.52232 10.7996 4.48695C10.7062 4.45159 10.6062 4.43422 10.5055 4.43589C10.4048 4.43755 10.3055 4.45822 10.2135 4.49665C10.1215 4.53508 10.0387 4.59049 9.97 4.65957L8 6.50644L6.03 4.65957Z" fill="black"/>
</svg>
