<svg xmlns="http://www.w3.org/2000/svg" width="24" height="24" viewBox="0 0 24 24" fill="none">
<path d="M15.8571 3C13.4914 3 11.5714 4.96683 11.5714 7.39024C11.5714 9.81366 13.4914 11.7805 15.8571 11.7805C18.2229 11.7805 20.1429 9.81366 20.1429 7.39024C20.1429 4.96683 18.2229 3 15.8571 3ZM15.8571 10.0244C14.4343 10.0244 13.2857 8.8478 13.2857 7.39024C13.2857 5.93268 14.4343 4.7561 15.8571 4.7561C17.28 4.7561 18.4286 5.93268 18.4286 7.39024C18.4286 8.8478 17.28 10.0244 15.8571 10.0244ZM18.4286 15.2927H16.7143C16.7143 14.239 16.0714 13.2907 15.1114 12.922L9.83143 10.9024H3V20.561H8.14286V19.2966L14.1429 21L21 18.8049V17.9268C21 16.4693 19.8514 15.2927 18.4286 15.2927ZM6.42857 18.8049H4.71429V12.6585H6.42857V18.8049ZM14.1171 19.1649L8.14286 17.4878V12.6585H9.52286L14.5114 14.5639C14.8029 14.678 15 14.9678 15 15.2927C15 15.2927 13.2857 15.2488 13.0286 15.161L10.9886 14.4673L10.4486 16.1356L12.4886 16.8293C12.9257 16.9785 13.38 17.0488 13.8429 17.0488H18.4286C18.7629 17.0488 19.0629 17.2595 19.2 17.5493L14.1171 19.1649Z" fill="#9CA3AF" stroke-width="0.2" stroke-linecap="round" stroke-linejoin="round"/>
</svg>