<svg width="16" height="13" viewBox="0 0 16 13" fill="none" xmlns="http://www.w3.org/2000/svg">
<path d="M4.11144 4.01777C4.01442 3.9167 4.02119 3.7592 4.12662 3.66619L8.20448 0.0656265C8.30375 -0.0218755 8.45655 -0.0218755 8.55582 0.0656265L12.6339 3.66619C12.7393 3.7592 12.7461 3.9167 12.6491 4.01777C12.5521 4.11884 12.388 4.12533 12.2826 4.03232L8.63951 0.815981V8.78457C8.63951 8.92201 8.52342 9.0335 8.38026 9.0335C8.23689 9.0335 8.1208 8.92201 8.1208 8.78457V0.815981L4.47775 4.03232C4.42791 4.07637 4.36495 4.098 4.30218 4.098C4.23224 4.098 4.16251 4.07106 4.11144 4.01777ZM15.7408 7.28897C15.5974 7.28897 15.4813 7.40026 15.4813 7.53771V11.6745C15.4813 12.1311 15.0943 12.5025 14.6183 12.5025H2.14204C1.6662 12.5025 1.27896 12.1311 1.27896 11.6745V7.53771C1.27896 7.40026 1.16287 7.28897 1.0195 7.28897C0.876342 7.28897 0.760254 7.40026 0.760254 7.53771V11.6745C0.760254 12.4054 1.38008 13 2.14204 13H14.6183C15.3802 13 16.0001 12.4054 16.0001 11.6745V7.53771C16.0001 7.40026 15.884 7.28897 15.7408 7.28897Z" fill="black"/>
</svg>
