<svg width="15" height="13" viewBox="0 0 15 13" fill="none" xmlns="http://www.w3.org/2000/svg">
<path d="M7.23836 13L7.08485 12.8944C7.0676 12.8826 5.30433 11.6616 3.56704 9.9739C2.54207 8.9758 1.72276 8.01305 1.13216 7.10901C0.382231 5.95265 0 4.88131 0 3.93034C0 1.7641 1.7402 0 3.87697 0C4.67012 0 5.43749 0.246628 6.09186 0.716124C6.56674 1.05661 6.9546 1.49116 7.23836 1.99011C7.52213 1.48821 7.91018 1.05367 8.38486 0.716124C9.03923 0.246628 9.8066 0 10.5999 0C12.7367 0 14.4767 1.7641 14.4767 3.93034V3.93328C14.468 4.87836 14.0831 5.94087 13.3302 7.09448C12.7394 7.99852 11.923 8.96127 10.8981 9.96212C9.16386 11.6557 7.40913 12.8826 7.39188 12.8944L7.23836 13ZM3.87697 0.548826C2.03831 0.548826 0.541365 2.06649 0.541365 3.93034C0.541365 4.77272 0.891809 5.73842 1.58378 6.80092C2.1484 7.66981 2.94175 8.60311 3.93764 9.57175C5.34775 10.9425 6.77802 12.0021 7.23836 12.3308C7.69871 11.9992 9.12025 10.9337 10.5275 9.55997C11.5206 8.58838 12.3111 7.65803 12.8786 6.78914C13.5706 5.72664 13.9266 4.76683 13.9325 3.93034C13.9325 2.06649 12.4355 0.551771 10.597 0.551771C9.23325 0.551771 7.98538 1.42655 7.48743 2.72979L7.23546 3.3931L6.98638 2.72979C6.48844 1.42655 5.24056 0.548826 3.87697 0.548826Z" fill="#565656"/>
</svg>
