<svg width="25" height="24" viewBox="0 0 25 24" fill="none" xmlns="http://www.w3.org/2000/svg">
<path d="M0.673975 7.47208C0.673975 14.5714 12.0354 23.2304 12.0354 23.2304C12.0354 23.2304 23.3464 14.5106 23.3969 7.47208C23.3969 3.83805 20.756 0.876953 17.5164 0.876953C15.0252 0.876953 12.8802 2.66619 12.0354 5.12207C11.1898 2.66619 9.04469 0.876953 6.55443 0.876953C3.31485 0.876953 0.673975 3.83805 0.673975 7.47208Z" fill="#423E3E" fill-opacity="0.35"/>
<path d="M12.1097 24L11.8528 23.8048C11.8238 23.7834 8.87352 21.5291 5.96771 18.4136C4.25254 16.5711 2.88131 14.7937 1.89395 13.1251C0.638879 10.9898 0 9.01207 0 7.25603C0 3.25687 2.91126 0 6.48589 0C7.81266 0 9.09677 0.455535 10.1912 1.32288C10.9853 1.95128 11.635 2.75355 12.1097 3.67479C12.5843 2.74745 13.2331 1.94619 14.0272 1.32288C15.1226 0.455535 16.4058 0 17.7334 0C21.3081 0 24.2193 3.25687 24.2193 7.25603V7.26111C24.2048 9.00597 23.5605 10.9684 22.3009 13.0977C21.3126 14.7663 19.9468 16.5437 18.2316 18.3912C15.3304 21.5179 12.3955 23.7834 12.3665 23.8048L12.1097 24ZM6.48589 1.01377C3.40947 1.01377 0.905684 3.81511 0.905684 7.25603C0.905684 8.81176 1.49193 10.5942 2.64899 12.5557C3.59369 14.1592 4.92137 15.8827 6.58753 17.6713C8.94612 20.2012 11.3392 22.1575 12.1097 22.7646C12.8792 22.1524 15.2578 20.1849 17.6118 17.6489C19.2735 15.8553 20.5957 14.1379 21.5449 12.5343C22.7029 10.5729 23.2982 8.80058 23.3082 7.25603C23.3082 3.81511 20.8044 1.01885 17.728 1.01885C15.4465 1.01885 13.3593 2.63356 12.5262 5.04038L12.1042 6.26463L11.6877 5.04038C10.8546 2.63356 8.76734 1.01377 6.48589 1.01377Z" fill="white"/>
</svg>
