<svg width="48" height="48" viewBox="0 0 48 48" fill="none" xmlns="http://www.w3.org/2000/svg">
<rect x="4" y="4" width="40" height="40" rx="12" fill="white"/>
<rect x="2" y="2" width="44" height="44" rx="14" stroke="white" stroke-opacity="0.4" strokeWidth="4"/>
<path d="M23.9994 32.0416C23.741 32.0416 23.491 32.0083 23.2827 31.9333C20.0994 30.8416 15.041 26.9666 15.041 21.2416C15.041 18.3249 17.3993 15.9583 20.2993 15.9583C21.7077 15.9583 23.0244 16.5083 23.9994 17.4916C24.9744 16.5083 26.291 15.9583 27.6994 15.9583C30.5994 15.9583 32.9577 18.3333 32.9577 21.2416C32.9577 26.9749 27.8994 30.8416 24.716 31.9333C24.5077 32.0083 24.2577 32.0416 23.9994 32.0416ZM20.2993 17.2083C18.091 17.2083 16.291 19.0166 16.291 21.2416C16.291 26.9333 21.766 30.0999 23.691 30.7583C23.841 30.8083 24.166 30.8083 24.316 30.7583C26.2327 30.0999 31.716 26.9416 31.716 21.2416C31.716 19.0166 29.916 17.2083 27.7077 17.2083C26.441 17.2083 25.266 17.7999 24.5077 18.8249C24.2744 19.1416 23.741 19.1416 23.5077 18.8249C22.7327 17.7916 21.566 17.2083 20.2993 17.2083Z" fill="#4282AA"/>
</svg>
