<svg width="124" height="27" viewBox="0 0 124 27" fill="none" xmlns="http://www.w3.org/2000/svg">
<path d="M0 12.0009V16.8987L7.896 11.3795C8.9153 10.667 10.2685 10.6573 11.2979 11.355L19.4767 16.8987V12.0009L11.2979 6.45721C10.2685 5.75946 8.9153 5.76918 7.896 6.48166L0 12.0009Z" fill="white"/>
<path d="M0 8.26555V11.6001L7.896 6.0809C8.9153 5.36842 10.2685 5.3587 11.2979 6.05645L19.4767 11.6001V8.29307C19.4767 7.29816 18.9835 6.36797 18.1599 5.80976L11.2979 1.15863C10.2685 0.460872 8.9153 0.470596 7.896 1.18307L1.28128 5.80669C0.478331 6.36794 0 7.28589 0 8.26555Z" fill="white"/>
<path d="M0 17.4755V17.5783C0 19.2332 1.34154 20.5747 2.99642 20.5747L7.87293 16.9447C8.89958 16.1805 10.298 16.1517 11.3552 16.8731L16.78 20.5747C18.2694 20.5747 19.4767 19.3673 19.4767 17.8779V17.3464L11.3389 11.7137C10.2905 10.9881 8.8981 11.0043 7.867 11.7542L0 17.4755Z" fill="white"/>
<path d="M7.852 17.3918C8.88197 16.6128 10.2949 16.5804 11.3595 17.3112L16.1829 20.6224H3.58032L7.852 17.3918Z" fill="white"/>
<path d="M39.447 7.19285C39.771 7.19285 40.032 7.30086 40.23 7.51686C40.428 7.71486 40.527 7.96685 40.527 8.27285V15.6439C40.527 17.4619 40.014 18.8749 38.988 19.8829C37.98 20.8729 36.567 21.3679 34.749 21.3679C32.949 21.3679 31.536 20.8729 30.51 19.8829C29.502 18.8749 28.998 17.4619 28.998 15.6439V8.27285C28.998 7.96685 29.097 7.71486 29.295 7.51686C29.511 7.30086 29.772 7.19285 30.078 7.19285C30.402 7.19285 30.663 7.30086 30.861 7.51686C31.059 7.71486 31.158 7.96685 31.158 8.27285V15.6439C31.158 16.8679 31.473 17.7949 32.103 18.4249C32.733 19.0549 33.615 19.3699 34.749 19.3699C35.919 19.3699 36.81 19.0549 37.422 18.4249C38.052 17.7949 38.367 16.8679 38.367 15.6439V8.27285C38.367 7.96685 38.466 7.71486 38.664 7.51686C38.88 7.30086 39.141 7.19285 39.447 7.19285ZM54.1133 6.97685C55.3373 6.97685 56.4353 7.28285 57.4073 7.89485C58.3793 8.50685 59.1443 9.35286 59.7023 10.4329C60.2783 11.5129 60.5663 12.7549 60.5663 14.1589C60.5663 15.5449 60.2783 16.7869 59.7023 17.8849C59.1443 18.9649 58.3793 19.8199 57.4073 20.4499C56.4533 21.0619 55.3733 21.3679 54.1673 21.3679C53.5013 21.3679 52.8713 21.2689 52.2773 21.0709C51.7013 20.8549 51.1703 20.5849 50.6843 20.2609C50.2163 19.9189 49.8203 19.5409 49.4963 19.1269C49.1723 18.6949 48.9383 18.2719 48.7943 17.8579L49.3883 17.4799V25.4449C49.3883 25.7509 49.2893 26.0119 49.0913 26.2279C48.8933 26.4439 48.6323 26.5519 48.3083 26.5519C48.0023 26.5519 47.7413 26.4439 47.5253 26.2279C47.3273 26.0299 47.2283 25.7689 47.2283 25.4449V8.19185C47.2283 7.88586 47.3273 7.63386 47.5253 7.43586C47.7413 7.21985 48.0023 7.11185 48.3083 7.11185C48.6323 7.11185 48.8933 7.21985 49.0913 7.43586C49.2893 7.63386 49.3883 7.88586 49.3883 8.19185V10.5949L48.9833 10.3789C49.1093 9.92885 49.3253 9.49685 49.6313 9.08285C49.9553 8.66885 50.3423 8.30885 50.7923 8.00285C51.2603 7.67886 51.7733 7.42686 52.3313 7.24685C52.9073 7.06685 53.5013 6.97685 54.1133 6.97685ZM53.8703 8.97485C52.9703 8.97485 52.1693 9.19985 51.4673 9.64985C50.7833 10.0999 50.2433 10.7119 49.8473 11.4859C49.4693 12.2599 49.2803 13.1509 49.2803 14.1589C49.2803 15.1489 49.4693 16.0399 49.8473 16.8319C50.2433 17.6239 50.7833 18.2449 51.4673 18.6949C52.1693 19.1449 52.9703 19.3699 53.8703 19.3699C54.7703 19.3699 55.5623 19.1449 56.2463 18.6949C56.9303 18.2449 57.4703 17.6239 57.8663 16.8319C58.2623 16.0399 58.4603 15.1489 58.4603 14.1589C58.4603 13.1509 58.2623 12.2599 57.8663 11.4859C57.4703 10.7119 56.9303 10.0999 56.2463 9.64985C55.5623 9.19985 54.7703 8.97485 53.8703 8.97485ZM65.7302 18.9379C65.5682 18.7039 65.4962 18.4609 65.5142 18.2089C65.5322 17.9389 65.6852 17.7049 65.9732 17.5069C66.1532 17.3809 66.3602 17.3269 66.5942 17.3449C66.8462 17.3629 67.0712 17.4799 67.2692 17.6959C67.7732 18.2899 68.3492 18.7669 68.9972 19.1269C69.6452 19.4689 70.4372 19.6399 71.3732 19.6399C71.8052 19.6219 72.2372 19.5499 72.6692 19.4239C73.1012 19.2979 73.4612 19.0819 73.7492 18.7759C74.0552 18.4519 74.2082 18.0289 74.2082 17.5069C74.2082 17.0029 74.0552 16.6069 73.7492 16.3189C73.4432 16.0129 73.0472 15.7699 72.5612 15.5899C72.0752 15.3919 71.5442 15.2209 70.9682 15.0769C70.3742 14.9149 69.7892 14.7349 69.2132 14.5369C68.6372 14.3209 68.1152 14.0599 67.6472 13.7539C67.1972 13.4299 66.8282 13.0339 66.5402 12.5659C66.2702 12.0799 66.1352 11.4949 66.1352 10.8109C66.1352 10.0009 66.3512 9.29885 66.7832 8.70485C67.2332 8.11085 67.8272 7.65185 68.5652 7.32785C69.3212 7.00385 70.1402 6.84185 71.0222 6.84185C71.5262 6.84185 72.0482 6.90485 72.5882 7.03086C73.1462 7.13886 73.6862 7.33685 74.2082 7.62485C74.7302 7.89485 75.1892 8.27285 75.5852 8.75885C75.7472 8.93885 75.8372 9.16385 75.8552 9.43386C75.8732 9.70385 75.7562 9.94685 75.5042 10.1629C75.3062 10.3069 75.0812 10.3699 74.8292 10.3519C74.5952 10.3339 74.3972 10.2439 74.2352 10.0819C73.8572 9.63185 73.3802 9.28985 72.8042 9.05586C72.2462 8.80386 71.6252 8.67786 70.9412 8.67786C70.5092 8.67786 70.0862 8.74086 69.6722 8.86686C69.2582 8.99286 68.9072 9.20886 68.6192 9.51485C68.3492 9.80285 68.2142 10.2079 68.2142 10.7299C68.2322 11.2159 68.3942 11.6119 68.7002 11.9179C69.0062 12.2239 69.4202 12.4759 69.9422 12.6739C70.4642 12.8539 71.0402 13.0339 71.6702 13.2139C72.2462 13.3579 72.7952 13.5289 73.3172 13.7269C73.8572 13.9069 74.3432 14.1499 74.7752 14.4559C75.2072 14.7619 75.5492 15.1579 75.8012 15.6439C76.0532 16.1119 76.1792 16.7059 76.1792 17.4259C76.1792 18.2539 75.9452 18.9739 75.4772 19.5859C75.0092 20.1799 74.3882 20.6389 73.6142 20.9629C72.8582 21.2689 72.0392 21.4219 71.1572 21.4219C70.1672 21.4219 69.1862 21.2329 68.2142 20.8549C67.2602 20.4769 66.4322 19.8379 65.7302 18.9379ZM84.0803 20.0449C84.0803 20.3509 83.9723 20.6119 83.7563 20.8279C83.5583 21.0439 83.3063 21.1519 83.0003 21.1519C82.6763 21.1519 82.4153 21.0439 82.2173 20.8279C82.0193 20.6119 81.9203 20.3509 81.9203 20.0449V8.05686C81.9203 7.75085 82.0193 7.49885 82.2173 7.30086C82.4333 7.08485 82.6943 6.97685 83.0003 6.97685C83.3063 6.97685 83.5583 7.08485 83.7563 7.30086C83.9723 7.49885 84.0803 7.75085 84.0803 8.05686V20.0449ZM83.0003 5.16786C82.5503 5.16786 82.2173 5.07785 82.0013 4.89785C81.7853 4.71785 81.6773 4.43885 81.6773 4.06086V3.68286C81.6773 3.30485 81.7943 3.02585 82.0283 2.84585C82.2623 2.66585 82.5953 2.57585 83.0273 2.57585C83.4593 2.57585 83.7833 2.66585 83.9993 2.84585C84.2153 3.02585 84.3233 3.30485 84.3233 3.68286V4.06086C84.3233 4.43885 84.2063 4.71785 83.9723 4.89785C83.7563 5.07785 83.4323 5.16786 83.0003 5.16786ZM102.162 1.17186C102.468 1.17186 102.72 1.27985 102.918 1.49585C103.134 1.69385 103.242 1.94585 103.242 2.25185V20.0449C103.242 20.3509 103.134 20.6119 102.918 20.8279C102.72 21.0439 102.468 21.1519 102.162 21.1519C101.838 21.1519 101.577 21.0439 101.379 20.8279C101.181 20.6119 101.082 20.3509 101.082 20.0449V17.4799L101.595 17.2909C101.595 17.7229 101.46 18.1819 101.19 18.6679C100.92 19.1359 100.551 19.5769 100.083 19.9909C99.6153 20.4049 99.0573 20.7469 98.4093 21.0169C97.7793 21.2869 97.0953 21.4219 96.3573 21.4219C95.1513 21.4219 94.0533 21.1069 93.0633 20.4769C92.0913 19.8469 91.3173 18.9829 90.7413 17.8849C90.1833 16.7869 89.9043 15.5359 89.9043 14.1319C89.9043 12.7099 90.1833 11.4499 90.7413 10.3519C91.3173 9.25385 92.0913 8.39885 93.0633 7.78685C94.0353 7.15685 95.1153 6.84185 96.3033 6.84185C97.0593 6.84185 97.7703 6.96785 98.4363 7.21985C99.1023 7.47185 99.6783 7.81385 100.164 8.24586C100.668 8.67785 101.064 9.15485 101.352 9.67686C101.64 10.1989 101.784 10.7209 101.784 11.2429L101.082 11.0809V2.25185C101.082 1.94585 101.181 1.69385 101.379 1.49585C101.577 1.27985 101.838 1.17186 102.162 1.17186ZM96.6003 19.4239C97.5003 19.4239 98.2923 19.1989 98.9763 18.7489C99.6783 18.2809 100.218 17.6509 100.596 16.8589C100.992 16.0489 101.19 15.1399 101.19 14.1319C101.19 13.1059 100.992 12.1969 100.596 11.4049C100.218 10.6129 99.6783 9.99185 98.9763 9.54186C98.2923 9.07385 97.5003 8.83985 96.6003 8.83985C95.7183 8.83985 94.9263 9.07385 94.2243 9.54186C93.5403 9.99185 93.0003 10.6129 92.6043 11.4049C92.2083 12.1969 92.0103 13.1059 92.0103 14.1319C92.0103 15.1219 92.2083 16.0219 92.6043 16.8319C93.0003 17.6239 93.5403 18.2539 94.2243 18.7219C94.9263 19.1899 95.7183 19.4239 96.6003 19.4239ZM116.398 21.4219C114.958 21.4219 113.698 21.1159 112.618 20.5039C111.538 19.8919 110.692 19.0549 110.08 17.9929C109.486 16.9129 109.189 15.6709 109.189 14.2669C109.189 12.7009 109.495 11.3689 110.107 10.2709C110.737 9.15485 111.547 8.30885 112.537 7.73286C113.545 7.13885 114.607 6.84185 115.723 6.84185C116.551 6.84185 117.352 6.99485 118.126 7.30086C118.9 7.60685 119.584 8.05685 120.178 8.65085C120.772 9.22685 121.249 9.92885 121.609 10.7569C121.969 11.5669 122.158 12.4759 122.176 13.4839C122.176 13.7719 122.068 14.0149 121.852 14.2129C121.636 14.4109 121.384 14.5099 121.096 14.5099H110.431L109.945 12.6469H120.34L119.908 13.0249V12.4309C119.836 11.6929 119.584 11.0629 119.152 10.5409C118.738 10.0009 118.225 9.58686 117.613 9.29886C117.019 9.01086 116.389 8.86686 115.723 8.86686C115.183 8.86686 114.643 8.96585 114.103 9.16385C113.581 9.34385 113.104 9.64985 112.672 10.0819C112.258 10.4959 111.916 11.0359 111.646 11.7019C111.394 12.3679 111.268 13.1689 111.268 14.1049C111.268 15.1489 111.475 16.0669 111.889 16.8589C112.321 17.6509 112.915 18.2809 113.671 18.7489C114.427 19.1989 115.309 19.4239 116.317 19.4239C116.947 19.4239 117.496 19.3429 117.964 19.1809C118.432 19.0189 118.837 18.8209 119.179 18.5869C119.521 18.3349 119.809 18.0829 120.043 17.8309C120.277 17.6689 120.502 17.5879 120.718 17.5879C120.988 17.5879 121.204 17.6779 121.366 17.8579C121.546 18.0379 121.636 18.2539 121.636 18.5059C121.636 18.8119 121.492 19.0819 121.204 19.3159C120.7 19.8739 120.016 20.3689 119.152 20.8009C118.288 21.2149 117.37 21.4219 116.398 21.4219Z" fill="white"/>
</svg>
