<svg width="137" height="40" viewBox="0 0 137 40" fill="none" xmlns="http://www.w3.org/2000/svg">
<path d="M0 22.2444V29L10.5334 21.0882C11.5877 20.2963 13.0355 20.2857 14.1014 21.062L25 29V22.2444L14.1014 14.3064C13.0355 13.5301 11.5877 13.5408 10.5334 14.3327L0 22.2444Z" fill="#1AC8DB"/>
<path d="M0 17.7431V23L10.5334 15.0882C11.5877 14.2963 13.0355 14.2857 14.1014 15.062L25 23V17.7708C25 16.8117 24.5415 15.9105 23.7662 15.3458L14.1014 8.30642C13.0355 7.53012 11.5877 7.54077 10.5334 8.33267L1.19829 15.3444C0.44388 15.911 0 16.7996 0 17.7431Z" fill="#C0F0F7"/>
<path d="M0 28.6923V29.1538C0 31.278 1.72198 33 3.84615 33L10.501 27.6358C11.5649 26.7782 13.0739 26.748 14.1713 27.5622L21.5 33C23.433 33 25 31.433 25 29.5V28.5128L14.1521 20.3824C13.0645 19.5672 11.5647 19.5851 10.4968 20.4261L0 28.6923Z" fill="#4282AA"/>
<path d="M3.8457 33H5.99954H13.4995H13.8701H19.9995H20.9995H21.4995L14.202 27.4429C13.0924 26.5979 11.5468 26.6291 10.4722 27.5181L3.8457 33Z" fill="#175873"/>
<path d="M45.246 15.642C45.708 15.642 46.093 15.807 46.401 16.137C46.731 16.445 46.896 16.841 46.896 17.325V26.004C46.896 28.292 46.258 30.085 44.982 31.383C43.706 32.659 41.902 33.297 39.57 33.297C37.26 33.297 35.467 32.659 34.191 31.383C32.937 30.085 32.31 28.292 32.31 26.004V17.325C32.31 16.841 32.464 16.445 32.772 16.137C33.08 15.807 33.476 15.642 33.96 15.642C34.422 15.642 34.807 15.807 35.115 16.137C35.445 16.445 35.61 16.841 35.61 17.325V26.004C35.61 27.434 35.94 28.501 36.6 29.205C37.282 29.909 38.272 30.261 39.57 30.261C40.89 30.261 41.891 29.909 42.573 29.205C43.255 28.501 43.596 27.434 43.596 26.004V17.325C43.596 16.841 43.75 16.445 44.058 16.137C44.366 15.807 44.762 15.642 45.246 15.642ZM60.7248 15.345C62.2648 15.345 63.6288 15.73 64.8168 16.5C66.0268 17.27 66.9838 18.326 67.6878 19.668C68.3918 20.988 68.7438 22.528 68.7438 24.288C68.7438 26.048 68.3918 27.61 67.6878 28.974C66.9838 30.316 66.0378 31.372 64.8498 32.142C63.6618 32.912 62.3198 33.297 60.8238 33.297C59.9878 33.297 59.1958 33.165 58.4478 32.901C57.6998 32.637 57.0398 32.296 56.4678 31.878C55.8958 31.438 55.4228 30.976 55.0488 30.492C54.6968 30.008 54.4768 29.557 54.3888 29.139L55.2798 28.71V37.917C55.2798 38.401 55.1148 38.797 54.7848 39.105C54.4768 39.435 54.0918 39.6 53.6298 39.6C53.1458 39.6 52.7498 39.435 52.4418 39.105C52.1338 38.797 51.9798 38.401 51.9798 37.917V17.259C51.9798 16.797 52.1338 16.401 52.4418 16.071C52.7498 15.741 53.1458 15.576 53.6298 15.576C54.0918 15.576 54.4768 15.741 54.7848 16.071C55.1148 16.401 55.2798 16.797 55.2798 17.259V19.536L54.7518 19.239C54.8178 18.821 55.0268 18.392 55.3788 17.952C55.7308 17.49 56.1708 17.061 56.6988 16.665C57.2488 16.269 57.8648 15.95 58.5468 15.708C59.2508 15.466 59.9768 15.345 60.7248 15.345ZM60.3618 18.381C59.3058 18.381 58.3818 18.645 57.5898 19.173C56.8198 19.679 56.2148 20.372 55.7748 21.252C55.3348 22.132 55.1148 23.144 55.1148 24.288C55.1148 25.41 55.3348 26.433 55.7748 27.357C56.2148 28.259 56.8198 28.974 57.5898 29.502C58.3818 30.008 59.3058 30.261 60.3618 30.261C61.3958 30.261 62.2978 30.008 63.0678 29.502C63.8378 28.974 64.4428 28.259 64.8828 27.357C65.3448 26.433 65.5758 25.41 65.5758 24.288C65.5758 23.166 65.3448 22.165 64.8828 21.285C64.4428 20.383 63.8378 19.679 63.0678 19.173C62.2978 18.645 61.3958 18.381 60.3618 18.381ZM71.9479 30.294C71.7499 29.986 71.6619 29.634 71.6839 29.238C71.7059 28.82 71.9369 28.468 72.3769 28.182C72.6849 27.984 73.0039 27.907 73.3339 27.951C73.6859 27.973 74.0159 28.138 74.3239 28.446C74.9399 29.128 75.6219 29.667 76.3699 30.063C77.1399 30.459 78.0639 30.657 79.1419 30.657C79.5819 30.635 80.0329 30.569 80.4949 30.459C80.9569 30.327 81.3529 30.107 81.6829 29.799C82.0129 29.469 82.1779 28.996 82.1779 28.38C82.1779 27.83 82.0019 27.39 81.6499 27.06C81.2979 26.73 80.8359 26.466 80.2639 26.268C79.6919 26.048 79.0759 25.85 78.4159 25.674C77.7119 25.476 76.9969 25.256 76.2709 25.014C75.5669 24.772 74.9289 24.464 74.3569 24.09C73.7849 23.694 73.3119 23.188 72.9379 22.572C72.5859 21.956 72.4099 21.197 72.4099 20.295C72.4099 19.261 72.6959 18.37 73.2679 17.622C73.8619 16.874 74.6209 16.291 75.5449 15.873C76.4909 15.455 77.5139 15.246 78.6139 15.246C79.2519 15.246 79.9229 15.334 80.6269 15.51C81.3309 15.664 82.0129 15.917 82.6729 16.269C83.3329 16.621 83.9049 17.083 84.3889 17.655C84.6089 17.941 84.7299 18.282 84.7519 18.678C84.7959 19.074 84.6199 19.426 84.2239 19.734C83.9599 19.954 83.6409 20.053 83.2669 20.031C82.8929 20.009 82.5849 19.888 82.3429 19.668C81.9249 19.14 81.3859 18.733 80.7259 18.447C80.0659 18.139 79.3179 17.985 78.4819 17.985C78.0639 17.985 77.6239 18.051 77.1619 18.183C76.7219 18.293 76.3479 18.502 76.0399 18.81C75.7319 19.118 75.5779 19.569 75.5779 20.163C75.5779 20.713 75.7539 21.153 76.1059 21.483C76.4799 21.813 76.9639 22.088 77.5579 22.308C78.1519 22.528 78.8009 22.726 79.5049 22.902C80.1869 23.078 80.8579 23.287 81.5179 23.529C82.1999 23.771 82.8049 24.09 83.3329 24.486C83.8829 24.86 84.3229 25.355 84.6529 25.971C85.0049 26.565 85.1809 27.324 85.1809 28.248C85.1809 29.326 84.8619 30.25 84.2239 31.02C83.6079 31.768 82.8159 32.34 81.8479 32.736C80.9019 33.132 79.9009 33.33 78.8449 33.33C77.5909 33.33 76.3369 33.11 75.0829 32.67C73.8509 32.208 72.8059 31.416 71.9479 30.294ZM92.3267 31.317C92.3267 31.801 92.1727 32.208 91.8647 32.538C91.5567 32.846 91.1607 33 90.6767 33C90.2147 33 89.8187 32.846 89.4887 32.538C89.1807 32.208 89.0267 31.801 89.0267 31.317V17.193C89.0267 16.709 89.1807 16.313 89.4887 16.005C89.8187 15.675 90.2147 15.51 90.6767 15.51C91.1607 15.51 91.5567 15.675 91.8647 16.005C92.1727 16.313 92.3267 16.709 92.3267 17.193V31.317ZM90.6437 13.332C90.0057 13.332 89.5437 13.222 89.2577 13.002C88.9717 12.76 88.8287 12.364 88.8287 11.814V11.286C88.8287 10.736 88.9827 10.351 89.2907 10.131C89.5987 9.911 90.0607 9.801 90.6767 9.801C91.3367 9.801 91.8097 9.922 92.0957 10.164C92.3817 10.384 92.5247 10.758 92.5247 11.286V11.814C92.5247 12.386 92.3707 12.782 92.0627 13.002C91.7767 13.222 91.3037 13.332 90.6437 13.332ZM111.484 8.58C111.968 8.58 112.364 8.734 112.672 9.042C112.98 9.35 113.134 9.757 113.134 10.263V31.317C113.134 31.801 112.98 32.208 112.672 32.538C112.364 32.846 111.968 33 111.484 33C111.022 33 110.626 32.846 110.296 32.538C109.988 32.208 109.834 31.801 109.834 31.317V28.941L110.527 28.974C110.527 29.37 110.362 29.821 110.032 30.327C109.724 30.811 109.295 31.284 108.745 31.746C108.195 32.208 107.546 32.593 106.798 32.901C106.05 33.187 105.247 33.33 104.389 33.33C102.871 33.33 101.507 32.945 100.297 32.175C99.0867 31.383 98.1297 30.316 97.4257 28.974C96.7217 27.61 96.3697 26.048 96.3697 24.288C96.3697 22.528 96.7217 20.977 97.4257 19.635C98.1297 18.271 99.0757 17.204 100.264 16.434C101.474 15.642 102.816 15.246 104.29 15.246C105.214 15.246 106.072 15.4 106.864 15.708C107.678 16.016 108.382 16.412 108.976 16.896C109.57 17.38 110.032 17.897 110.362 18.447C110.692 18.975 110.857 19.481 110.857 19.965L109.834 20.064V10.263C109.834 9.779 109.988 9.383 110.296 9.075C110.626 8.745 111.022 8.58 111.484 8.58ZM104.752 30.294C105.808 30.294 106.721 30.03 107.491 29.502C108.283 28.974 108.899 28.259 109.339 27.357C109.779 26.455 109.999 25.432 109.999 24.288C109.999 23.144 109.779 22.121 109.339 21.219C108.899 20.317 108.283 19.602 107.491 19.074C106.699 18.546 105.786 18.282 104.752 18.282C103.74 18.282 102.838 18.546 102.046 19.074C101.276 19.602 100.66 20.317 100.198 21.219C99.7577 22.121 99.5377 23.144 99.5377 24.288C99.5377 25.432 99.7577 26.455 100.198 27.357C100.66 28.259 101.276 28.974 102.046 29.502C102.838 30.03 103.74 30.294 104.752 30.294ZM126.337 33.33C124.511 33.33 122.927 32.956 121.585 32.208C120.243 31.438 119.198 30.393 118.45 29.073C117.724 27.731 117.361 26.202 117.361 24.486C117.361 22.55 117.746 20.9 118.516 19.536C119.308 18.15 120.331 17.094 121.585 16.368C122.839 15.62 124.17 15.246 125.578 15.246C126.656 15.246 127.679 15.466 128.647 15.906C129.615 16.324 130.473 16.918 131.221 17.688C131.991 18.436 132.596 19.327 133.036 20.361C133.476 21.373 133.707 22.484 133.729 23.694C133.707 24.134 133.531 24.497 133.201 24.783C132.871 25.069 132.486 25.212 132.046 25.212H119.209L118.417 22.407H130.825L130.198 23.001V22.176C130.154 21.406 129.901 20.735 129.439 20.163C128.977 19.569 128.405 19.118 127.723 18.81C127.041 18.48 126.326 18.315 125.578 18.315C124.918 18.315 124.28 18.425 123.664 18.645C123.07 18.843 122.531 19.173 122.047 19.635C121.585 20.097 121.211 20.713 120.925 21.483C120.661 22.231 120.529 23.166 120.529 24.288C120.529 25.498 120.782 26.554 121.288 27.456C121.794 28.358 122.476 29.062 123.334 29.568C124.192 30.052 125.138 30.294 126.172 30.294C126.986 30.294 127.657 30.217 128.185 30.063C128.713 29.887 129.153 29.678 129.505 29.436C129.857 29.194 130.165 28.963 130.429 28.743C130.759 28.545 131.089 28.446 131.419 28.446C131.815 28.446 132.145 28.589 132.409 28.875C132.673 29.139 132.805 29.458 132.805 29.832C132.805 30.316 132.563 30.756 132.079 31.152C131.485 31.724 130.66 32.23 129.604 32.67C128.57 33.11 127.481 33.33 126.337 33.33Z" fill="#30345E"/>
</svg>
