<svg width="17" height="17" viewBox="0 0 17 17" fill="none" xmlns="http://www.w3.org/2000/svg">
<path d="M7.39168 9.92468L5.6698 8.2028C5.52466 8.05766 5.34337 7.98852 5.12593 7.99538C4.90795 8.00172 4.7264 8.07745 4.58126 8.22259C4.43612 8.36773 4.36355 8.55245 4.36355 8.77676C4.36355 9.00106 4.43612 9.18579 4.58126 9.33093L6.83751 11.5872C6.98265 11.7323 7.16737 11.8049 7.39168 11.8049C7.61598 11.8049 7.8007 11.7323 7.94584 11.5872L12.4386 7.09447C12.5837 6.94933 12.6531 6.76777 12.6468 6.5498C12.6399 6.33236 12.5639 6.15106 12.4188 6.00593C12.2736 5.86079 12.0889 5.78822 11.8646 5.78822C11.6403 5.78822 11.4556 5.86079 11.3104 6.00593L7.39168 9.92468ZM8.50001 16.4163C7.40487 16.4163 6.3757 16.2084 5.41251 15.7925C4.44932 15.3771 3.61147 14.8132 2.89897 14.1007C2.18647 13.3882 1.62254 12.5504 1.20718 11.5872C0.791288 10.624 0.583344 9.59481 0.583344 8.49968C0.583344 7.40454 0.791288 6.37537 1.20718 5.41218C1.62254 4.44898 2.18647 3.61113 2.89897 2.89863C3.61147 2.18613 4.44932 1.62194 5.41251 1.20605C6.3757 0.790688 7.40487 0.583008 8.50001 0.583008C9.59515 0.583008 10.6243 0.790688 11.5875 1.20605C12.5507 1.62194 13.3886 2.18613 14.1011 2.89863C14.8136 3.61113 15.3775 4.44898 15.7928 5.41218C16.2087 6.37537 16.4167 7.40454 16.4167 8.49968C16.4167 9.59481 16.2087 10.624 15.7928 11.5872C15.3775 12.5504 14.8136 13.3882 14.1011 14.1007C13.3886 14.8132 12.5507 15.3771 11.5875 15.7925C10.6243 16.2084 9.59515 16.4163 8.50001 16.4163ZM8.50001 14.833C10.2549 14.833 11.7493 14.2163 12.9832 12.9829C14.2166 11.7489 14.8333 10.2545 14.8333 8.49968C14.8333 6.74481 14.2166 5.25041 12.9832 4.01647C11.7493 2.78305 10.2549 2.16634 8.50001 2.16634C6.74515 2.16634 5.25101 2.78305 4.01759 4.01647C2.78365 5.25041 2.16668 6.74481 2.16668 8.49968C2.16668 10.2545 2.78365 11.7489 4.01759 12.9829C5.25101 14.2163 6.74515 14.833 8.50001 14.833Z" fill="black"/>
</svg>
