<svg width="26" height="27" viewBox="0 0 26 27" fill="none" xmlns="http://www.w3.org/2000/svg">
<path d="M13 2.24219C7.02975 2.24219 2.16667 7.10527 2.16667 13.0755C2.16667 19.0458 7.02975 23.9089 13 23.9089C18.9703 23.9089 23.8333 19.0458 23.8333 13.0755C23.8333 7.10527 18.9703 2.24219 13 2.24219ZM13 4.40885C17.7993 4.40885 21.6667 8.27622 21.6667 13.0755C21.6667 17.8748 17.7993 21.7422 13 21.7422C8.2007 21.7422 4.33333 17.8748 4.33333 13.0755C4.33333 8.27622 8.2007 4.40885 13 4.40885ZM11.9167 6.57552V13.5241L16.5674 18.1748L18.0993 16.6429L14.0833 12.627V6.57552H11.9167Z" fill="#40425e"/>
</svg>
