<svg width="14" height="14" viewBox="0 0 14 14" fill="none" xmlns="http://www.w3.org/2000/svg">
<g id="fi_3114812" clip-path="url(#clip0_4915_19776)">
<path id="Vector" d="M7.00065 0.583984C5.73156 0.583984 4.49096 0.960315 3.43574 1.66539C2.38053 2.37046 1.55809 3.37261 1.07243 4.5451C0.586765 5.71759 0.459693 7.00777 0.707282 8.25248C0.95487 9.49719 1.566 10.6405 2.46339 11.5379C3.36077 12.4353 4.50411 13.0464 5.74882 13.294C6.99354 13.5416 8.28371 13.4145 9.45621 12.9289C10.6287 12.4432 11.6308 11.6208 12.3359 10.5656C13.041 9.51035 13.4173 8.26975 13.4173 7.00065C13.4153 5.29946 12.7386 3.66852 11.5357 2.4656C10.3328 1.26268 8.70184 0.585991 7.00065 0.583984ZM7.00065 12.2507C5.9623 12.2507 4.94727 11.9427 4.08391 11.3659C3.22055 10.789 2.54765 9.96905 2.15029 9.00974C1.75293 8.05043 1.64896 6.99483 1.85153 5.97643C2.0541 4.95803 2.55412 4.02257 3.28834 3.28834C4.02257 2.55411 4.95803 2.0541 5.97643 1.85153C6.99483 1.64896 8.05043 1.75292 9.00974 2.15028C9.96905 2.54764 10.789 3.22055 11.3659 4.08391C11.9427 4.94727 12.2507 5.9623 12.2507 7.00065C12.249 8.39252 11.6953 9.72689 10.7111 10.7111C9.72689 11.6953 8.39252 12.249 7.00065 12.2507Z" fill="#6B7280"/>
<path id="Vector_2" d="M7.58268 6.75785V3.49935C7.58268 3.34464 7.52122 3.19627 7.41183 3.08687C7.30243 2.97747 7.15406 2.91602 6.99935 2.91602C6.84464 2.91602 6.69627 2.97747 6.58687 3.08687C6.47747 3.19627 6.41602 3.34464 6.41602 3.49935V6.99935C6.41605 7.15405 6.47753 7.30239 6.58693 7.41177L8.33693 9.16177C8.44695 9.26802 8.5943 9.32682 8.74725 9.32549C8.9002 9.32416 9.0465 9.26281 9.15466 9.15466C9.26281 9.0465 9.32416 8.9002 9.32549 8.74725C9.32682 8.5943 9.26802 8.44695 9.16177 8.33693L7.58268 6.75785Z" fill="#6B7280"/>
</g>
<defs>
<clipPath id="clip0_4915_19776">
<rect width="14" height="14" fill="white"/>
</clipPath>
</defs>
</svg>
