<svg width="14" height="19" viewBox="0 0 14 19" fill="none" xmlns="http://www.w3.org/2000/svg">
<path d="M6.78028 3.34466L4.15528 0.719656C3.86278 0.426781 3.38728 0.426781 3.09478 0.719656L0.469778 3.34466C0.176903 3.63753 0.176903 4.11228 0.469778 4.40516C0.762278 4.69803 1.23778 4.69803 1.53028 4.40516L2.87503 3.06041V17.7499C2.87503 18.1639 3.21103 18.4999 3.62503 18.4999C4.03903 18.4999 4.37503 18.1639 4.37503 17.7499V3.06041L5.71978 4.40516C5.86603 4.55178 6.05803 4.62491 6.25003 4.62491C6.44203 4.62491 6.63403 4.55178 6.78028 4.40516C7.07315 4.11228 7.07315 3.63753 6.78028 3.34466Z" fill="#353945"/>
<path d="M13.5303 14.5947C13.2374 14.3019 12.7627 14.3019 12.4698 14.5947L11.125 15.9395V1.25C11.125 0.836 10.789 0.5 10.375 0.5C9.96103 0.5 9.62503 0.836 9.62503 1.25V15.9395L8.28028 14.5947C7.9874 14.3019 7.51228 14.3019 7.21978 14.5947C6.9269 14.8876 6.9269 15.3624 7.21978 15.6553L9.84478 18.2803C9.9914 18.4269 10.183 18.5 10.375 18.5C10.567 18.5 10.7587 18.4269 10.9053 18.2803L13.5303 15.6553C13.8232 15.3624 13.8232 14.8876 13.5303 14.5947Z" fill="#353945"/>
</svg>
