<svg width="24" height="24" viewBox="0 0 24 24" fill="none" xmlns="http://www.w3.org/2000/svg">
<g id="svg2793" clip-path="url(#clip0_4853_30222)">
<g id="_17-Hexagon">
<g id="g2366">
<path id="path2364" d="M16.0463 14.3348L12.0007 16.6702L7.95508 14.3348V9.66328L12.0007 7.32755L16.0463 9.66328V14.3348ZM17.4525 14.7408V9.25734C17.4525 9.00614 17.3185 8.77402 17.101 8.64844L12.3522 5.90672C12.1347 5.78109 11.8666 5.78109 11.6491 5.90672L6.90039 8.64844C6.68284 8.77402 6.54883 9.00614 6.54883 9.25734V14.7408C6.54883 14.992 6.68284 15.2242 6.90044 15.3497L11.6492 18.091C11.7579 18.1538 11.8793 18.1852 12.0007 18.1852C12.122 18.1852 12.2434 18.1538 12.3522 18.091L17.1009 15.3497C17.3185 15.2242 17.4525 14.992 17.4525 14.7408Z" fill="#9CA3AF"/>
</g>
<g id="g2370">
<path id="path2368" d="M14.1934 22.0791V19.9327L17.775 17.8646L19.6339 18.938L14.1934 22.0791ZM21.3917 18.3291L18.1266 16.4438C17.909 16.3182 17.641 16.3182 17.4234 16.4438L13.1387 18.9179C12.9211 19.0435 12.7871 19.2756 12.7871 19.5268V23.2969C12.7871 23.5481 12.9211 23.7803 13.1387 23.9059C13.2475 23.9687 13.3688 24 13.4902 24C13.6116 24 13.733 23.9687 13.8418 23.9059L21.3917 19.547C21.6092 19.4214 21.7432 19.1893 21.7432 18.9381C21.7432 18.6869 21.6093 18.4547 21.3917 18.3291Z" fill="#9CA3AF"/>
</g>
<g id="g2374">
<path id="path2372" d="M9.80764 22.0791L4.36714 18.938L6.22602 17.8647L9.80764 19.9327V22.0791ZM10.8623 18.9179L6.57763 16.4438C6.36008 16.3182 6.09195 16.3182 5.87445 16.4438L2.60938 18.3291C2.39178 18.4548 2.25781 18.6869 2.25781 18.9381C2.25781 19.1893 2.39183 19.4214 2.60938 19.547L10.1592 23.9059C10.268 23.9687 10.3894 24.0001 10.5108 24.0001C10.6322 24.0001 10.7536 23.9687 10.8623 23.9059C11.0799 23.7803 11.2139 23.5482 11.2139 23.297V19.5268C11.2139 19.2756 11.0799 19.0435 10.8623 18.9179Z" fill="#9CA3AF"/>
</g>
<g id="g2378">
<path id="path2376" d="M4.03461 14.0672L2.17578 15.1405V8.85841L4.03461 9.93148V14.0672ZM5.44086 14.4731V9.52549C5.44086 9.27424 5.30684 9.04212 5.08925 8.91654L1.82417 7.0317C1.60663 6.90607 1.33859 6.90612 1.12105 7.03174C0.903547 7.15732 0.769531 7.38945 0.769531 7.64065V16.3585C0.769531 16.6097 0.903547 16.8418 1.12109 16.9674C1.22989 17.0302 1.35125 17.0616 1.47266 17.0616C1.59406 17.0616 1.71547 17.0302 1.82422 16.9674L5.0893 15.082C5.30684 14.9564 5.44086 14.7244 5.44086 14.4731Z" fill="#9CA3AF"/>
</g>
<g id="g2382">
<path id="path2380" d="M21.8257 15.1405L19.9668 14.0672V9.93144L21.8257 8.85838V15.1405ZM22.8804 7.03171C22.6628 6.90613 22.3948 6.90608 22.1773 7.03166L18.9122 8.9165C18.6946 9.04208 18.5605 9.27425 18.5605 9.52546V14.4731C18.5605 14.7243 18.6946 14.9564 18.9121 15.082L22.1772 16.9673C22.286 17.0301 22.4074 17.0616 22.5288 17.0616C22.6502 17.0616 22.7716 17.0301 22.8804 16.9674C23.0979 16.8418 23.2319 16.6096 23.2319 16.3584V7.64061C23.2319 7.38941 23.0979 7.15729 22.8804 7.03171Z" fill="#9CA3AF"/>
</g>
<g id="g2386">
<path id="path2384" d="M9.80764 1.92098V4.06734L6.22602 6.135L4.36723 5.06198L9.80764 1.92098ZM2.60942 5.67098L5.8745 7.55583C5.9833 7.61859 6.10466 7.65 6.22602 7.65C6.34742 7.65 6.46878 7.61859 6.57758 7.55583L10.8623 5.08223C11.0799 4.95661 11.2139 4.72453 11.2139 4.47328V0.703125C11.2139 0.451922 11.0799 0.219797 10.8623 0.0942187C10.6448 -0.0314063 10.3767 -0.0314063 10.1592 0.0942187L2.60938 4.45312C2.39183 4.57875 2.25781 4.81083 2.25781 5.06208C2.25781 5.31328 2.39183 5.54541 2.60942 5.67098Z" fill="#9CA3AF"/>
</g>
<g id="g2390">
<path id="path2388" d="M14.1934 1.92098L19.6338 5.06198L17.775 6.135L14.1934 4.06734V1.92098ZM13.1387 5.08223L17.4235 7.55583C17.5323 7.61864 17.6536 7.65 17.775 7.65C17.8964 7.65 18.0178 7.61859 18.1265 7.55583L21.3916 5.67098C21.6092 5.54541 21.7432 5.31328 21.7432 5.06208C21.7432 4.81083 21.6092 4.5787 21.3917 4.45312L13.8418 0.0942187C13.6243 -0.0314063 13.3562 -0.0314063 13.1387 0.0942187C12.9211 0.219797 12.7871 0.451922 12.7871 0.703125V4.47328C12.7871 4.72453 12.9211 4.95661 13.1387 5.08223Z" fill="#9CA3AF"/>
</g>
</g>
</g>
<defs>
<clipPath id="clip0_4853_30222">
<rect width="24" height="24" fill="white"/>
</clipPath>
</defs>
</svg>
