<svg width="26" height="26" viewBox="0 0 26 26" fill="none" xmlns="http://www.w3.org/2000/svg">
<path d="M13 19.25C13.3542 19.25 13.6513 19.13 13.8913 18.89C14.1304 18.6508 14.25 18.3542 14.25 18V14.25H18.0312C18.3854 14.25 18.6771 14.13 18.9062 13.89C19.1354 13.6508 19.25 13.3542 19.25 13C19.25 12.6458 19.13 12.3487 18.89 12.1087C18.6508 11.8696 18.3542 11.75 18 11.75H14.25V7.96875C14.25 7.61458 14.1304 7.32292 13.8913 7.09375C13.6513 6.86458 13.3542 6.75 13 6.75C12.6458 6.75 12.3492 6.86958 12.11 7.10875C11.87 7.34875 11.75 7.64583 11.75 8V11.75H7.96875C7.61458 11.75 7.32292 11.8696 7.09375 12.1087C6.86458 12.3487 6.75 12.6458 6.75 13C6.75 13.3542 6.86958 13.6508 7.10875 13.89C7.34875 14.13 7.64583 14.25 8 14.25H11.75V18.0312C11.75 18.3854 11.87 18.6771 12.11 18.9062C12.3492 19.1354 12.6458 19.25 13 19.25ZM13 25.5C11.2708 25.5 9.64583 25.1717 8.125 24.515C6.60417 23.8592 5.28125 22.9688 4.15625 21.8438C3.03125 20.7188 2.14083 19.3958 1.485 17.875C0.828333 16.3542 0.5 14.7292 0.5 13C0.5 11.2708 0.828333 9.64583 1.485 8.125C2.14083 6.60417 3.03125 5.28125 4.15625 4.15625C5.28125 3.03125 6.60417 2.14042 8.125 1.48375C9.64583 0.827917 11.2708 0.5 13 0.5C14.7292 0.5 16.3542 0.827917 17.875 1.48375C19.3958 2.14042 20.7188 3.03125 21.8438 4.15625C22.9688 5.28125 23.8592 6.60417 24.515 8.125C25.1717 9.64583 25.5 11.2708 25.5 13C25.5 14.7292 25.1717 16.3542 24.515 17.875C23.8592 19.3958 22.9688 20.7188 21.8438 21.8438C20.7188 22.9688 19.3958 23.8592 17.875 24.515C16.3542 25.1717 14.7292 25.5 13 25.5ZM13 23C15.7708 23 18.1304 22.0263 20.0788 20.0788C22.0263 18.1304 23 15.7708 23 13C23 10.2292 22.0263 7.86958 20.0788 5.92125C18.1304 3.97375 15.7708 3 13 3C10.2292 3 7.87 3.97375 5.9225 5.92125C3.97417 7.86958 3 10.2292 3 13C3 15.7708 3.97417 18.1304 5.9225 20.0788C7.87 22.0263 10.2292 23 13 23Z" fill="white"/>
</svg>
