<svg width="30" height="25" viewBox="0 0 30 25" fill="none" xmlns="http://www.w3.org/2000/svg">
<path d="M28.125 21.9063H26.7188V11.5352C26.718 11.2081 26.6488 10.8848 26.5156 10.5861C26.3824 10.2874 26.1881 10.0199 25.9453 9.8008L16.5703 1.28126C16.1402 0.886805 15.5778 0.667969 14.9941 0.667969C14.4105 0.667969 13.8481 0.886805 13.418 1.28126L4.04297 9.8008C3.80399 10.0223 3.61306 10.2906 3.48203 10.5889C3.351 10.8872 3.28266 11.2093 3.28125 11.5352V21.9063H1.875C1.50204 21.9063 1.14435 22.0544 0.880631 22.3181C0.616908 22.5819 0.46875 22.9396 0.46875 23.3125C0.46875 23.6855 0.616908 24.0432 0.880631 24.3069C1.14435 24.5706 1.50204 24.7188 1.875 24.7188H28.125C28.498 24.7188 28.8556 24.5706 29.1194 24.3069C29.3831 24.0432 29.5312 23.6855 29.5312 23.3125C29.5312 22.9396 29.3831 22.5819 29.1194 22.3181C28.8556 22.0544 28.498 21.9063 28.125 21.9063ZM6.09375 11.7461L15 3.64845L23.9062 11.7461V21.9063H19.2188V16.75C19.2157 16.1294 18.9678 15.535 18.5289 15.0961C18.09 14.6573 17.4957 14.4093 16.875 14.4063H13.125C12.5043 14.4093 11.91 14.6573 11.4711 15.0961C11.0322 15.535 10.7843 16.1294 10.7812 16.75V21.9063H6.09375V11.7461ZM16.4062 21.9063H13.5938V17.2188H16.4062V21.9063Z" fill="white"/>
</svg>
