<svg width="24" height="30" viewBox="0 0 24 30" fill="none" xmlns="http://www.w3.org/2000/svg">
<path d="M5.45455 6.42857C5.16522 6.42857 4.88774 6.54145 4.68316 6.74239C4.47857 6.94332 4.36364 7.21584 4.36364 7.5C4.36364 7.78416 4.47857 8.05668 4.68316 8.25761C4.88774 8.45855 5.16522 8.57143 5.45455 8.57143V6.42857ZM9.81818 8.57143C10.1075 8.57143 10.385 8.45855 10.5896 8.25761C10.7942 8.05668 10.9091 7.78416 10.9091 7.5C10.9091 7.21584 10.7942 6.94332 10.5896 6.74239C10.385 6.54145 10.1075 6.42857 9.81818 6.42857V8.57143ZM5.45455 13.9286C5.16522 13.9286 4.88774 14.0415 4.68316 14.2424C4.47857 14.4433 4.36364 14.7158 4.36364 15C4.36364 15.2842 4.47857 15.5567 4.68316 15.7576C4.88774 15.9585 5.16522 16.0714 5.45455 16.0714V13.9286ZM18.5455 16.0714C18.8348 16.0714 19.1123 15.9585 19.3168 15.7576C19.5214 15.5567 19.6364 15.2842 19.6364 15C19.6364 14.7158 19.5214 14.4433 19.3168 14.2424C19.1123 14.0415 18.8348 13.9286 18.5455 13.9286V16.0714ZM5.45455 18.2143C5.16522 18.2143 4.88774 18.3272 4.68316 18.5281C4.47857 18.729 4.36364 19.0016 4.36364 19.2857C4.36364 19.5699 4.47857 19.8424 4.68316 20.0433C4.88774 20.2443 5.16522 20.3571 5.45455 20.3571V18.2143ZM18.5455 20.3571C18.8348 20.3571 19.1123 20.2443 19.3168 20.0433C19.5214 19.8424 19.6364 19.5699 19.6364 19.2857C19.6364 19.0016 19.5214 18.729 19.3168 18.5281C19.1123 18.3272 18.8348 18.2143 18.5455 18.2143V20.3571ZM5.45455 22.5C5.16522 22.5 4.88774 22.6129 4.68316 22.8138C4.47857 23.0147 4.36364 23.2873 4.36364 23.5714C4.36364 23.8556 4.47857 24.1281 4.68316 24.329C4.88774 24.53 5.16522 24.6429 5.45455 24.6429V22.5ZM9.81818 24.6429C10.1075 24.6429 10.385 24.53 10.5896 24.329C10.7942 24.1281 10.9091 23.8556 10.9091 23.5714C10.9091 23.2873 10.7942 23.0147 10.5896 22.8138C10.385 22.6129 10.1075 22.5 9.81818 22.5V24.6429ZM3.27273 2.14286H20.7273V0H3.27273V2.14286ZM21.8182 3.21429V26.7857H24V3.21429H21.8182ZM20.7273 27.8571H3.27273V30H20.7273V27.8571ZM2.18182 26.7857V3.21429H0V26.7857H2.18182ZM3.27273 27.8571C2.9834 27.8571 2.70592 27.7443 2.50134 27.5433C2.29675 27.3424 2.18182 27.0699 2.18182 26.7857H0C0 27.6382 0.344804 28.4558 0.95856 29.0586C1.57232 29.6614 2.40475 30 3.27273 30V27.8571ZM21.8182 26.7857C21.8182 27.0699 21.7032 27.3424 21.4987 27.5433C21.2941 27.7443 21.0166 27.8571 20.7273 27.8571V30C21.5953 30 22.4277 29.6614 23.0414 29.0586C23.6552 28.4558 24 27.6382 24 26.7857H21.8182ZM20.7273 2.14286C21.0166 2.14286 21.2941 2.25574 21.4987 2.45667C21.7032 2.6576 21.8182 2.93012 21.8182 3.21429H24C24 2.3618 23.6552 1.54424 23.0414 0.941443C22.4277 0.338647 21.5953 0 20.7273 0V2.14286ZM3.27273 0C2.40475 0 1.57232 0.338647 0.95856 0.941443C0.344804 1.54424 0 2.3618 0 3.21429H2.18182C2.18182 2.93012 2.29675 2.6576 2.50134 2.45667C2.70592 2.25574 2.9834 2.14286 3.27273 2.14286V0ZM5.45455 8.57143H9.81818V6.42857H5.45455V8.57143ZM5.45455 16.0714H18.5455V13.9286H5.45455V16.0714ZM5.45455 20.3571H18.5455V18.2143H5.45455V20.3571ZM5.45455 24.6429H9.81818V22.5H5.45455V24.6429Z" fill="white"/>
</svg>
