<svg width="32" height="32" viewBox="0 0 32 32" fill="none" xmlns="http://www.w3.org/2000/svg">
<path d="M0 18.6217V26.2218L14.1262 16.8962C15.1159 16.2429 16.3976 16.2339 17.3964 16.8732L32 26.2218V18.6217L17.3964 9.2732C16.3976 8.63381 15.1159 8.64282 14.1262 9.29619L0 18.6217Z" fill="white"/>
<path d="M0 12.0143V18.0001L14.1262 8.67456C15.1159 8.02118 16.3976 8.01217 17.3964 8.65156L32 18.0001V12.0416C32 11.0188 31.4789 10.0665 30.6174 9.51501L17.3964 1.05152C16.3976 0.412126 15.1159 0.421139 14.1262 1.07451L1.34719 9.5107C0.506084 10.066 0 11.0065 0 12.0143Z" fill="white"/>
<path d="M0 27.1174V28.9266C0 30.5834 1.34314 31.9266 3 31.9266H4.92308L14.1013 25.4739C15.1003 24.7716 16.4253 24.7449 17.4518 25.4064L27.5692 31.9266H29C30.6569 31.9266 32 30.5834 32 28.9266V26.9171L17.4366 17.3969C16.4185 16.7314 15.0993 16.7465 14.0966 17.4351L0 27.1174Z" fill="white"/>
<path d="M14.0726 26.15C15.0754 25.4337 16.4143 25.4036 17.4483 26.074L26.5884 32H5.88257L14.0726 26.15Z" fill="white"/>
</svg>
