<svg width="70" height="42" viewBox="0 0 70 42" fill="none" xmlns="http://www.w3.org/2000/svg">
<path d="M66.5007 17.5084C65.5726 17.5084 64.6826 17.877 64.0263 18.5331C63.3701 19.1893 63.0014 20.0792 63.0014 21.0072V30.0691L40.9909 8.02658C40.6656 7.69865 40.2786 7.43836 39.8522 7.26073C39.4258 7.0831 38.9684 6.99164 38.5064 6.99164C38.0445 6.99164 37.5871 7.0831 37.1607 7.26073C36.7343 7.43836 36.3473 7.69865 36.0219 8.02658L24.5093 19.5726L5.99809 1.02897C5.33917 0.370132 4.44547 0 3.5136 0C2.58174 0 1.68804 0.370132 1.02911 1.02897C0.370182 1.68781 0 2.58139 0 3.51312C0 4.44486 0.370182 5.33844 1.02911 5.99728L22.0248 26.9901C22.3501 27.3181 22.7371 27.5783 23.1636 27.756C23.59 27.9336 24.0474 28.0251 24.5093 28.0251C24.9713 28.0251 25.4286 27.9336 25.8551 27.756C26.2815 27.5783 26.6685 27.3181 26.9938 26.9901L38.5064 15.4441L58.0674 35.0024H49.0043C48.0762 35.0024 47.1862 35.371 46.5299 36.0272C45.8737 36.6833 45.505 37.5733 45.505 38.5012C45.505 39.4291 45.8737 40.3191 46.5299 40.9752C47.1862 41.6314 48.0762 42 49.0043 42H66.5007C66.958 41.9945 67.4098 41.8994 67.8304 41.7201C68.6855 41.3651 69.365 40.6857 69.7201 39.8307C69.8994 39.4101 69.9945 38.9584 70 38.5012V21.0072C70 20.0792 69.6313 19.1893 68.9751 18.5331C68.3188 17.877 67.4288 17.5084 66.5007 17.5084Z" fill="#1AC8DB"/>
</svg>
