<svg width="16" height="17" viewBox="0 0 16 17" fill="none" xmlns="http://www.w3.org/2000/svg">
<path d="M8 8.03906C6.9 8.03906 5.95833 7.6474 5.175 6.86406C4.39167 6.08073 4 5.13906 4 4.03906C4 2.93906 4.39167 1.9974 5.175 1.21406C5.95833 0.430729 6.9 0.0390625 8 0.0390625C9.1 0.0390625 10.0417 0.430729 10.825 1.21406C11.6083 1.9974 12 2.93906 12 4.03906C12 5.13906 11.6083 6.08073 10.825 6.86406C10.0417 7.6474 9.1 8.03906 8 8.03906ZM0 16.0391V13.2391C0 12.6724 0.146 12.1514 0.438 11.6761C0.73 11.2007 1.11733 10.8384 1.6 10.5891C2.63333 10.0724 3.68333 9.68473 4.75 9.42606C5.81667 9.1674 6.9 9.0384 8 9.03906C9.1 9.03906 10.1833 9.1684 11.25 9.42706C12.3167 9.68573 13.3667 10.0731 14.4 10.5891C14.8833 10.8391 15.271 11.2017 15.563 11.6771C15.855 12.1524 16.0007 12.6731 16 13.2391V16.0391H0Z" fill="#30345E"/>
</svg>
