<svg width="25" height="24" viewBox="0 0 25 24" fill="none" xmlns="http://www.w3.org/2000/svg">
<path d="M16.0488 2H8.04883C7.5184 2 7.00969 2.21071 6.63461 2.58579C6.25954 2.96086 6.04883 3.46957 6.04883 4V20C6.04883 20.5304 6.25954 21.0391 6.63461 21.4142C7.00969 21.7893 7.5184 22 8.04883 22H16.0488C16.5793 22 17.088 21.7893 17.463 21.4142C17.8381 21.0391 18.0488 20.5304 18.0488 20V4C18.0488 3.46957 17.8381 2.96086 17.463 2.58579C17.088 2.21071 16.5793 2 16.0488 2ZM13.0488 21H11.0488V20H13.0488V21ZM16.0488 19H8.04883V5H16.0488V19Z" fill="#2FA2B9"/>
</svg>
