<svg width="24" height="25" viewBox="0 0 24 25" fill="none" xmlns="http://www.w3.org/2000/svg">
<g id="gridicons:phone">
<path id="Vector" d="M15.6873 2.56998H7.84372C7.32365 2.56998 6.82489 2.77657 6.45715 3.14431C6.08941 3.51205 5.88281 4.01082 5.88281 4.53088V20.2181C5.88281 20.7382 6.08941 21.237 6.45715 21.6047C6.82489 21.9725 7.32365 22.179 7.84372 22.179H15.6873C16.2074 22.179 16.7062 21.9725 17.0739 21.6047C17.4417 21.237 17.6483 20.7382 17.6483 20.2181V4.53088C17.6483 4.01082 17.4417 3.51205 17.0739 3.14431C16.7062 2.77657 16.2074 2.56998 15.6873 2.56998ZM12.746 21.1986H10.7851V20.2181H12.746V21.1986ZM15.6873 19.2377H7.84372V5.51134H15.6873V19.2377Z" fill="#2FA2B9"/>
</g>
</svg>
