<svg width="24" height="21" viewBox="0 0 24 21" fill="none" xmlns="http://www.w3.org/2000/svg">
<path d="M22.8087 8.96858L12.7135 0.62059C12.3247 0.299973 11.707 0.299973 11.3195 0.62059L1.22364 8.96858C0.828128 9.29543 0.819583 9.8329 1.2041 10.1686C1.58924 10.5047 2.22156 10.512 2.61707 10.1852L2.77027 10.0586V18.6634C2.77027 19.7944 3.85364 20.7147 5.18482 20.7147H18.8475C20.1793 20.7147 21.2621 19.7944 21.2621 18.6634V10.0591L21.4147 10.1852C21.6088 10.3455 21.8602 10.4259 22.1117 10.4259C22.3717 10.4259 22.6317 10.3398 22.8276 10.1686C23.2128 9.83238 23.2042 9.29543 22.8087 8.96858ZM19.2644 9.64717V18.6629C19.2644 18.8574 19.077 19.0162 18.8481 19.0162H5.18482C4.95594 19.0162 4.76917 18.8574 4.76917 18.6629V9.64717C4.76917 9.30788 4.53296 9.01735 4.19422 8.88142L12.0159 2.41356L19.8375 8.88142C19.5 9.01735 19.2644 9.30788 19.2644 9.64717Z" fill="#C0F0F7"/>
</svg>
