<svg width="60" height="54" viewBox="0 0 60 54" fill="none" xmlns="http://www.w3.org/2000/svg">
<path d="M21.8972 19.1557H23.519V26.4604C23.519 26.8637 23.8818 27.1913 24.3299 27.1913H35.6861C36.1355 27.1913 36.4983 26.8637 36.4983 26.4604V19.1557H38.1201C38.4481 19.1557 38.7453 18.9774 38.8703 18.7044C38.9953 18.4314 38.926 18.1172 38.6945 17.9078L30.5819 10.603C30.2773 10.3289 29.7388 10.3289 29.4355 10.603L21.3228 17.9078C21.0913 18.1172 21.0207 18.4314 21.147 18.7044C21.2721 18.9774 21.5692 19.1557 21.8972 19.1557ZM34.8753 25.7295H25.1421V19.1557H34.8753V25.7295ZM30.0087 12.1529L36.1615 17.6938H23.8545L30.0087 12.1529Z" fill="#C0F0F7"/>
<path d="M41.3661 30.8281H18.6512C18.2018 30.8281 17.8391 31.1557 17.8391 31.559C17.8391 31.9624 18.2018 32.2888 18.6512 32.2888H41.3661C41.8143 32.2888 42.177 31.9624 42.177 31.559C42.177 31.1557 41.8143 30.8281 41.3661 30.8281Z" fill="#C0F0F7"/>
<path d="M41.3661 35.2158H18.6512C18.2018 35.2158 17.8391 35.5423 17.8391 35.9456C17.8391 36.349 18.2018 36.6765 18.6512 36.6765H41.3661C41.8143 36.6765 42.177 36.349 42.177 35.9456C42.177 35.5423 41.8143 35.2158 41.3661 35.2158Z" fill="#C0F0F7"/>
<path d="M30.0012 39.6006H18.6512C18.2018 39.6006 17.8391 39.927 17.8391 40.3304C17.8391 40.7337 18.2018 41.0613 18.6512 41.0613H30.0012C30.4494 41.0613 30.8121 40.7337 30.8121 40.3304C30.8121 39.927 30.4494 39.6006 30.0012 39.6006Z" fill="#C0F0F7"/>
<path d="M40.1928 2.7941L40.1928 2.79407C40.1066 2.70597 40.0045 2.63547 39.8898 2.58568L39.8898 2.58568L39.8889 2.58531C39.7754 2.53684 39.6512 2.51016 39.5248 2.51016H13.3327C12.3711 2.51016 11.5949 3.30809 11.5949 4.28374V49.7181C11.5949 50.6926 12.3712 51.4905 13.3327 51.4905H46.6672C47.6288 51.4905 48.4051 50.6926 48.4051 49.7181V11.5849C48.4051 11.4574 48.3794 11.3319 48.3324 11.2169C48.2853 11.1002 48.2164 10.9942 48.128 10.9053C48.1279 10.9051 48.1278 10.905 48.1277 10.9049L40.1928 2.7941ZM40.4682 10.6244V5.79872L45.1891 10.6244H40.4682ZM13.4827 49.5681V4.43374H38.5803V11.5849C38.5803 12.1125 38.9992 12.5467 39.5248 12.5467H46.5173V49.5681H13.4827Z" fill="#C0F0F7" stroke="#C0F0F7" strokeWidth="0.3"/>
</svg>
