<svg width="10" height="6" viewBox="0 0 10 6" fill="none" xmlns="http://www.w3.org/2000/svg">
<path d="M9.47223 1.43016L5.60514 5.30876C5.5591 5.3548 5.50923 5.38733 5.45552 5.40636C5.40181 5.4257 5.34427 5.43536 5.28288 5.43536C5.2215 5.43536 5.16396 5.4257 5.11025 5.40636C5.05654 5.38733 5.00666 5.3548 4.96063 5.30876L1.08203 1.43016C0.974608 1.32274 0.920898 1.18847 0.920898 1.02734C0.920898 0.866213 0.978444 0.728103 1.09354 0.613011C1.20863 0.49792 1.3429 0.440373 1.49636 0.440373C1.64981 0.440373 1.78409 0.49792 1.89918 0.613011L5.28288 3.99671L8.66659 0.613011C8.77401 0.505592 8.90628 0.451882 9.06342 0.451882C9.22087 0.451882 9.35714 0.509429 9.47223 0.62452C9.58732 0.739612 9.64487 0.873886 9.64487 1.02734C9.64487 1.1808 9.58732 1.31507 9.47223 1.43016Z" fill="#2FA2B9"/>
</svg>
