<svg width="24" height="24" viewBox="0 0 24 24" fill="none" xmlns="http://www.w3.org/2000/svg">
<path d="M17.8147 14.4043C17.4047 13.9774 16.9101 13.7491 16.3859 13.7491C15.866 13.7491 15.3671 13.9731 14.9402 14.4001L13.6044 15.7317C13.4945 15.6725 13.3846 15.6175 13.2789 15.5626C13.1267 15.4865 12.983 15.4146 12.8604 15.3385C11.6091 14.5438 10.472 13.5081 9.38132 12.1681C8.85291 11.5002 8.49782 10.9379 8.23995 10.3673C8.58659 10.0502 8.90786 9.72049 9.22068 9.40344C9.33905 9.28508 9.45741 9.16248 9.57577 9.04412C10.4635 8.15639 10.4635 7.00657 9.57577 6.11884L8.42173 4.96479C8.29068 4.83375 8.15541 4.69848 8.02859 4.5632C7.77495 4.30111 7.50863 4.03056 7.23386 3.77693C6.82381 3.37111 6.33345 3.15552 5.81772 3.15552C5.30199 3.15552 4.80317 3.37111 4.38045 3.77693C4.37622 3.78116 4.37622 3.78116 4.37199 3.78538L2.93471 5.23534C2.39362 5.77643 2.08503 6.43589 2.01739 7.20103C1.91594 8.43539 2.27949 9.58521 2.55849 10.3377C3.24331 12.185 4.26631 13.897 5.79236 15.7317C7.64391 17.9425 9.87168 19.6884 12.4165 20.9186C13.3888 21.3793 14.6866 21.9246 16.1365 22.0176C16.2253 22.0219 16.3183 22.0261 16.4028 22.0261C17.3793 22.0261 18.1994 21.6752 18.842 20.9777C18.8462 20.9693 18.8547 20.9651 18.8589 20.9566C19.0787 20.6903 19.3323 20.4493 19.5987 20.1915C19.7804 20.0181 19.9664 19.8364 20.1482 19.6461C20.5667 19.2107 20.7865 18.7035 20.7865 18.1835C20.7865 17.6593 20.5625 17.1563 20.1355 16.7335L17.8147 14.4043ZM19.3281 18.8556C19.3239 18.8556 19.3239 18.8599 19.3281 18.8556C19.1632 19.0332 18.9942 19.1938 18.8124 19.3714C18.5376 19.6335 18.2586 19.9082 17.9965 20.2168C17.5696 20.6734 17.0665 20.889 16.4071 20.889C16.3437 20.889 16.276 20.889 16.2126 20.8847C14.9571 20.8044 13.7904 20.3141 12.9153 19.8956C10.5227 18.7373 8.42173 17.0929 6.67586 15.0088C5.23436 13.2714 4.27054 11.665 3.63222 9.9403C3.23908 8.88771 3.09535 8.06762 3.15876 7.29403C3.20103 6.79943 3.39126 6.38939 3.74213 6.03852L5.18363 4.59702C5.39077 4.40257 5.61058 4.29688 5.82618 4.29688C6.09249 4.29688 6.30809 4.45752 6.44336 4.59279C6.44759 4.59702 6.45181 4.60125 6.45604 4.60548C6.7139 4.84643 6.95909 5.09584 7.21695 5.36216C7.348 5.49743 7.48327 5.6327 7.61854 5.7722L8.77259 6.92625C9.22068 7.37434 9.22068 7.78862 8.77259 8.23671C8.65 8.3593 8.53163 8.48189 8.40904 8.60026C8.05395 8.9638 7.71577 9.30198 7.348 9.63171C7.33954 9.64017 7.33109 9.64439 7.32686 9.65285C6.96331 10.0164 7.03095 10.3715 7.10704 10.6124C7.11127 10.6251 7.1155 10.6378 7.11972 10.6505C7.41986 11.3776 7.84259 12.0624 8.48514 12.8783L8.48936 12.8825C9.65609 14.3198 10.8862 15.44 12.2432 16.2981C12.4165 16.408 12.5941 16.4968 12.7631 16.5814C12.9153 16.6575 13.0591 16.7293 13.1816 16.8054C13.1986 16.8139 13.2155 16.8265 13.2324 16.835C13.3761 16.9069 13.5114 16.9407 13.6509 16.9407C14.0017 16.9407 14.2216 16.7209 14.2934 16.649L15.7391 15.2033C15.8829 15.0595 16.1112 14.8862 16.3775 14.8862C16.6396 14.8862 16.8552 15.0511 16.9862 15.1948C16.9904 15.199 16.9904 15.199 16.9947 15.2033L19.3239 17.5325C19.7593 17.9637 19.7593 18.4075 19.3281 18.8556Z" fill="#525252"/>
<path d="M12.8096 6.76137C13.9171 6.94737 14.9232 7.47155 15.7264 8.27474C16.5296 9.07792 17.0496 10.084 17.2398 11.1916C17.2863 11.4706 17.5272 11.665 17.802 11.665C17.8358 11.665 17.8654 11.6608 17.8992 11.6566C18.2121 11.6058 18.4192 11.3099 18.3685 10.9971C18.1402 9.65706 17.5061 8.43537 16.5381 7.46733C15.57 6.49928 14.3483 5.86519 13.0083 5.63691C12.6955 5.58619 12.4038 5.79332 12.3488 6.10191C12.2939 6.41051 12.4968 6.71064 12.8096 6.76137Z" fill="#525252"/>
<path d="M21.9914 10.8323C21.6152 8.62569 20.5752 6.61773 18.9773 5.01982C17.3794 3.42191 15.3715 2.382 13.1648 2.00577C12.8562 1.95082 12.5645 2.16218 12.5096 2.47077C12.4589 2.78359 12.666 3.07527 12.9788 3.13023C14.9487 3.46418 16.7453 4.39841 18.1741 5.82301C19.603 7.25183 20.533 9.04842 20.8669 11.0183C20.9134 11.2973 21.1544 11.4918 21.4292 11.4918C21.463 11.4918 21.4926 11.4876 21.5264 11.4833C21.835 11.4368 22.0463 11.1409 21.9914 10.8323Z" fill="#525252"/>
</svg>
