<svg width="22" height="16" viewBox="0 0 22 16" fill="none" xmlns="http://www.w3.org/2000/svg">
<path d="M20.0664 0H1.93359C0.865262 0 0 0.870633 0 1.93359V13.5352C0 14.6044 0.871621 15.4688 1.93359 15.4688H20.0664C21.1258 15.4688 22 14.6081 22 13.5352V1.93359C22 0.872523 21.1382 0 20.0664 0ZM19.7956 1.28906C19.4006 1.68201 12.602 8.44478 12.3673 8.67827C12.002 9.0435 11.5165 9.2446 11 9.2446C10.4835 9.2446 9.99797 9.04346 9.63153 8.67707C9.47366 8.52002 2.75013 1.83193 2.20438 1.28906H19.7956ZM1.28906 13.2728V2.19678L6.85945 7.73781L1.28906 13.2728ZM2.2052 14.1797L7.77339 8.6469L8.72124 9.58977C9.32993 10.1985 10.1392 10.5337 11 10.5337C11.8608 10.5337 12.6701 10.1985 13.2776 9.59097L14.2266 8.6469L19.7948 14.1797H2.2052ZM20.7109 13.2728L15.1406 7.73781L20.7109 2.19678V13.2728Z" fill="#525252"/>
</svg>
