<svg width="20" height="20" viewBox="0 0 20 20" fill="none" xmlns="http://www.w3.org/2000/svg">
<path d="M10 0C5.86375 0 2.5 3.36375 2.5 7.5C2.5 12.6987 9.27 19.5287 9.5575 19.8175C9.68 19.9387 9.84 20 10 20C10.16 20 10.32 19.9387 10.4425 19.8175C10.73 19.5287 17.5 12.6987 17.5 7.5C17.5 3.36375 14.1362 0 10 0ZM10 18.4713C8.5075 16.8738 3.75 11.4713 3.75 7.5C3.75 4.05375 6.55375 1.25 10 1.25C13.4462 1.25 16.25 4.05375 16.25 7.5C16.25 11.4675 11.4925 16.8738 10 18.4713Z" fill="#525252"/>
<path d="M9.75 4C7.6825 4 6 5.6825 6 7.75C6 9.8175 7.6825 11.5 9.75 11.5C11.8175 11.5 13.5 9.8175 13.5 7.75C13.5 5.6825 11.8175 4 9.75 4ZM9.75 10.25C8.37125 10.25 7.25 9.12875 7.25 7.75C7.25 6.37125 8.37125 5.25 9.75 5.25C11.1287 5.25 12.25 6.37125 12.25 7.75C12.25 9.12875 11.1287 10.25 9.75 10.25Z" fill="#525252"/>
</svg>
