<svg width="23" height="23" viewBox="0 0 23 23" fill="none" xmlns="http://www.w3.org/2000/svg">
<path id="Vector" d="M17.6482 8.82411H19.6091C20.1292 8.82411 20.6279 9.03071 20.9957 9.39845C21.3634 9.76619 21.57 10.265 21.57 10.785V21.57L17.6482 17.6482H11.7655C11.2454 17.6482 10.7466 17.4416 10.3789 17.0739C10.0112 16.7061 9.80457 16.2074 9.80457 15.6873V14.7068M13.7264 8.82411C13.7264 9.34418 13.5198 9.84294 13.152 10.2107C12.7843 10.5784 12.2855 10.785 11.7655 10.785H5.88275L1.96094 14.7068V3.92184C1.96094 2.84335 2.84335 1.96094 3.92184 1.96094H11.7655C12.2855 1.96094 12.7843 2.16753 13.152 2.53527C13.5198 2.90302 13.7264 3.40178 13.7264 3.92184V8.82411Z" stroke="#2FA2B9" stroke-width="2" stroke-linecap="round" stroke-linejoin="round"/>
</svg>
