<svg width="20" height="21" viewBox="0 0 20 21" fill="none" xmlns="http://www.w3.org/2000/svg">
<path d="M19 14.5391V5.53906C19 4.70906 18.33 4.03906 17.5 4.03906H3.48999C2.65999 4.03906 1.98999 4.70906 1.98999 5.53906V14.5391C1.98999 15.3691 2.65999 16.0391 3.48999 16.0391H17.5C18.33 16.0391 19 15.3691 19 14.5391ZM17.69 5.42906C18.02 5.75906 17.84 6.09906 17.66 6.26906L13.6 9.98906L17.5 14.0491C17.62 14.1891 17.7 14.4091 17.56 14.5591C17.43 14.7191 17.13 14.7091 17 14.6091L12.63 10.8791L10.49 12.8291L8.35999 10.8791L3.98999 14.6091C3.85999 14.7091 3.55999 14.7191 3.42999 14.5591C3.28999 14.4091 3.36999 14.1891 3.48999 14.0491L7.38999 9.98906L3.32999 6.26906C3.14999 6.09906 2.96999 5.75906 3.29999 5.42906C3.62999 5.09906 3.96999 5.25906 4.24999 5.49906L10.49 10.5391L16.74 5.49906C17.02 5.25906 17.36 5.09906 17.69 5.42906Z" fill="#30345E"/>
</svg>
