<svg width="24" height="25" viewBox="0 0 24 25" fill="none" xmlns="http://www.w3.org/2000/svg">
<path d="M19.23 15.2991L16.69 15.0091C16.3914 14.974 16.0886 15.0071 15.8046 15.1058C15.5206 15.2045 15.2626 15.3663 15.05 15.5791L13.21 17.4191C10.3712 15.9753 8.06382 13.6679 6.62004 10.8291L8.47004 8.97907C8.90004 8.54907 9.11004 7.94907 9.04004 7.33907L8.75004 4.81907C8.69335 4.33125 8.45923 3.88131 8.09228 3.55492C7.72532 3.22853 7.25115 3.04849 6.76004 3.04907H5.03004C3.90004 3.04907 2.96004 3.98907 3.03004 5.11907C3.56004 13.6591 10.39 20.4791 18.92 21.0091C20.05 21.0791 20.99 20.1391 20.99 19.0091V17.2791C21 16.2691 20.24 15.4191 19.23 15.2991Z" fill="#30345E"/>
</svg>
