<svg width="30" height="30" viewBox="0 0 30 30" fill="none" xmlns="http://www.w3.org/2000/svg">
<g clip-path="url(#clip0_1296_177)">
<path d="M8.43384 22.4304C9.52606 21.5799 10.2306 20.2538 10.2306 18.7656C10.2306 16.2046 8.14682 14.1211 5.58586 14.1211C3.0249 14.1211 0.941391 16.2046 0.941391 18.7656C0.941391 20.2538 1.64589 21.5799 2.73788 22.4304C1.19659 23.3473 0 25.079 0 27.2383V29.1211C0 29.6066 0.393448 30 0.878906 30H10.293C10.7783 30 11.172 29.6066 11.172 29.1211V27.2383C11.172 25.0795 9.97559 23.3475 8.43384 22.4304ZM2.6992 18.7656C2.6992 17.1739 3.99422 15.8789 5.58609 15.8789C7.17773 15.8789 8.47275 17.1739 8.47275 18.7656C8.47275 20.3574 7.17773 21.6525 5.58609 21.6525C3.99422 21.6525 2.6992 20.3574 2.6992 18.7656ZM9.41414 28.2422H1.75781V27.2383C1.75781 25.1239 3.46848 23.4103 5.58586 23.4103C7.70027 23.4103 9.41391 25.1209 9.41391 27.2383V28.2422H9.41414Z" fill="#677185"/>
<path d="M26.2969 0H15C12.9547 0 11.2969 1.65482 11.2969 3.70308V20.6483C11.2969 21.3673 12.1213 21.7877 12.7031 21.3515L16.2343 18.7031H26.2969C28.3422 18.7031 30 17.0483 30 15V3.70308C30 1.65779 28.3451 0 26.2969 0ZM28.2421 15C28.2421 16.0753 27.3726 16.9453 26.2969 16.9453H15.9413C15.7511 16.9453 15.5662 17.0071 15.414 17.121L13.0547 18.8905V3.70308C13.0547 2.62779 13.9242 1.75781 15 1.75781H26.2969C27.3722 1.75781 28.2421 2.62733 28.2421 3.70308V15Z" fill="#677185"/>
<path d="M25.3555 4.70703H15.9414C15.4559 4.70703 15.0625 5.10071 15.0625 5.58594C15.0625 6.0714 15.4559 6.46484 15.9414 6.46484H25.3555C25.8408 6.46484 26.2345 6.0714 26.2345 5.58594C26.2345 5.10071 25.841 4.70703 25.3555 4.70703Z" fill="#677185"/>
<path d="M25.3555 8.47266H15.9414C15.4559 8.47266 15.0625 8.8661 15.0625 9.35156C15.0625 9.83679 15.4559 10.2305 15.9414 10.2305H25.3555C25.8408 10.2305 26.2345 9.83679 26.2345 9.35156C26.2345 8.8661 25.841 8.47266 25.3555 8.47266Z" fill="#677185"/>
<path d="M20.6484 12.2383H15.9414C15.4559 12.2383 15.0625 12.6317 15.0625 13.1172C15.0625 13.6026 15.4559 13.9961 15.9414 13.9961H20.6484C21.1338 13.9961 21.5273 13.6026 21.5273 13.1172C21.5273 12.6317 21.1338 12.2383 20.6484 12.2383Z" fill="#677185"/>
</g>
<defs>
<clipPath id="clip0_1296_177">
<rect width="30" height="30" fill="white"/>
</clipPath>
</defs>
</svg>
